<?xml version="1.0" encoding="UTF-8"?>
<svg id="Camada_2" data-name="Camada 2" xmlns="http://www.w3.org/2000/svg" viewBox="0 0 343.33 311.99">
  <defs>
    <style>
      .cls-1 {
        fill: #fbfaf8;
      }

      .cls-1, .cls-2, .cls-3 {
        stroke-width: 0px;
      }

      .cls-2 {
        fill: #565656;
      }

      .cls-3 {
        fill: #cd6d3b;
      }
    </style>
  </defs>
  <g id="Camada_2-2" data-name="Camada 2">
    <g>
      <path class="cls-2" d="M248.77,113.5c9.28,29.43,4.93,56.44-14.35,80.79-3.42,4.32-7.47,8.03-11.63,11.62-12.61,10.87-20.07,23.97-19.21,41.31.6,11.95-.25,23.97.24,35.93.27,6.65-2.51,10.79-7.89,13.7-2.96,1.6-5.25,3.63-7.35,6.37-9.48,12.38-28.51,11.51-37.02-1.66-1.52-2.35-3.7-3.25-5.81-4.42-5.55-3.09-8.45-7.19-8.22-14.03.45-13.96.24-27.95.09-41.93-.16-15.21-8.07-26.24-19.51-35.27-2.61-2.73-5.17-5.52-7.83-8.19-7.07-7.09-11.59-15.9-16.55-24.41-2.05-8.37-5.07-16.51-5.46-25.26-1.54-34.79,12.18-61.89,42.59-78.78,29.69-16.49,59.42-14,87.82,4.66,2.46,1.62,4.2,4.32,7.34,4.91.47.86.77,1.92,1.45,2.56,9.67,9.01,16.31,20.02,21.31,32.11ZM192.66,185.4c1.1-.49,2.21-.98,3.3-1.47,6.8,3.06,15.77,1.32,20.49-3.95,3.96-4.43,4.76-9.85,2.61-14.73-.95-2.16-5.07-4.5-1.9-6.65,3.23-2.19,3.81,3.03,6.23,4.24,1.89-1.73,2.53-4.06,2.06-6.35-.68-3.36-2.12-6.48-.94-10.13.74-2.3-1.56-1.39-2.64-1.53-1.34-.17-2.23-.77-2.29-2.14-.05-1.11.64-1.83,1.73-2.1.65-.16,1.35-.2,1.93-.5,2.49-1.3,2.37-3.76,1.51-5.62-1.34-2.89-2.77.05-3.76.64-2.7,1.62-5.39,3.05-8.58,3.3-1.42-1.86-3.96-1.62-5.62-3.03-.76-.65-1.67-1.34-1.17-2.47.52-1.17,1.5-1.76,2.84-1.29.78.28,1.52.69,2.31.92,5.35,1.56,8.75.27,11.4-4.31,2.72-4.69,2.33-8.16-1.77-12-1.56-1.46-2.32-2.89-2.67-5.02-.72-4.45-2.95-5.24-6.55-2.62-.99.72-1.93,1.48-3.11.7-1.25-.81-.98-1.91-.29-3.02,1.67-2.67,1.13-5.12-1.05-7.16-2.19-2.06-4.83-2.04-7.42-.86-1.43.65-2.89,2.59-4.23.57-1.3-1.96.34-3.52,2.04-4.35,4.32-2.13,1.53-3.18-.57-4.35-4.02-2.24-8.13-.28-12.2-.19-2.18-.47-4.91-2.89-5.72,1.59-.09,7.16-.11,14.31-.29,21.47-.07,2.63.79,3.86,3.55,4.26,2.64.38,5.06,1.73,6.57,4.12.91,1.44,1.68,3.28.01,4.51-1.89,1.4-2.5-.57-3.21-1.82-1.23-2.14-3.48-3.23-5.47-2.69-2.43.66-1.41,3.41-1.42,5.24-.07,16.82-.1,33.63.04,50.45.03,3.78-.84,7.67.83,11.35-.37,3.26,2.15,4.92,4.37,4.84,5.16-.17,10.59.1,15.61-2.79-2.45-1.89-6.37-1.06-6.56-5.06ZM124.61,204.69c5.91,6.52,11.33,13.32,14.9,21.53,1.66,3.82.11,9.69,4.22,11.33,3.87,1.54,8.84.17,13.3.43,3.15.18,3.56-1.2,3.29-3.85-1.2-11.74-4.64-22.7-11.06-32.65-.96-1.49-1.76-3.28-3.87-3.58-3.13-2.67-5.84-6.57-9.46-7.78-8.51-2.84-12.13-10.31-17.3-16.25-1.98-2.27-2.7-5.85-2.28-9,.34-2.56-.61-4.13-2.25-5.66-1.51-9.85-.55-19.9-2.54-29.72-.24-1.21.05-2.78.67-3.86,3.78-6.61,7.7-13.15,11.65-19.66.4-.66,1.21-1.22,1.95-1.51,2.65-1.07,3.88-2.87,4.6-5.75,1.4-5.58,6.48-9.25,12.26-9.01,2.88.12,4.86-.66,7.08-2.42,4.38-3.49,9.29-3.61,14.54-1.56,4.55,1.77,4.2,5.41,4.29,9.06-.1,19.11-.29,38.22-.25,57.33.02,13.12-.58,26.25.36,39.36-2.94,6.7-10,5.25-15.48,7.78,5.95,9.45,9.53,19.71,11.02,30.7,1.09,8.02,1.12,7.79,9.18,8.05,3.71.12,4.76-1.03,4.96-4.63.62-11.3,4.06-21.81,9.69-31.63.63-1.1,1.76-2.1,1.12-3.94-6.96,1.18-12.25-1.21-15.14-8.01.15-2.14.43-4.29.43-6.43.03-25.27.03-50.54-.01-75.81,0-4.64.34-9.31-.72-13.9.95-7.84,1.82-9.16,7.27-8.83,3.59.22,7.12.47,10.69-.08,2.53-.39,4.78.63,6.94,1.82.42-.1.84-.21,1.26-.31.34-.05.69-.09,1.03-.14.83,2.78,2.51,5.66,4.63,6.85,5.26,2.94,7.02,9.66,13.22,11.42,1.6.45,1.96,2.55,2.74,3.99.86,1.58.6,3.63,2.04,4.98,4.4,4.17,5.34,9.28,4.08,14.99.56,2.08,1.57,4.16,1.61,6.25.13,8.04-.73,16.08.46,24.14.42,2.83-1.19,5.54-3.21,7.61-1.4,1.44-1.74,2.98-1.86,4.89-.49,8.26-6,15.61-14.04,17.4-6.09,1.35-10.68,5.47-14.08,9.31-9.15,10.32-13.09,23.33-13.96,37.14-.08,1.29-.31,2.84,1.77,2.81,4.81-.07,9.88.72,14.32-.6,2.33-.69,1.39-5.71,2.68-8.57.68-1.51,1.18-3.11,1.84-4.63,4.45-10.2,12.19-17.64,20.34-24.87,22.87-20.3,31.41-53.62,21.4-82.53-4.73-14.79-13.21-26.95-25.57-36.38-7.94-7.05-17.46-11.42-27.45-14.12-28.86-7.8-54.39-.88-76.05,19.51-22.54,21.22-30.02,58.02-17.68,84.65,4.96,14.42,14.43,25.37,26.44,34.36ZM134.03,104.66c-.34.76-.68,1.51-1.01,2.27-4.14-.41-6.9,1.93-8.05,5.36-1.42,4.22-1.07,8.6,2.66,11.9,1.27,1.12,3,2.13,1.17,3.93-1.59,1.57-3.06.21-4.41-.71-2.21-1.51-2.77-4.29-4.34-6.39-4.16,4.76-4.76,7.04-3.22,11.91,1.88-.77,4.08-2.91,5.74-.63,1.87,2.58-1.31,3.02-2.63,4.22-4.75,4.37-3.9,9.94,1.9,13.13.65.36,1.03,1.22,1.53,1.84-3.65,1.95-7.44,3.8-2.75,8.52,1.04,1.05.37,2.54.11,3.83-.94,4.69.76,8.3,4.32,11.32,1.32-1.84.8-5.34,3.56-5.01,3.22.39,1.11,3.52,1.59,5.38.16.63.07,1.32.07,1.99-.02,4.85,1.92,8.02,7.17,8.29,1.43.07,2.47.61,3.35,1.79,5.15,6.96,11.88,7.62,19.59,5.06,2.63-.88,3.77-2.12,3.69-4.96-.17-6.15-.12-12.3-.04-18.46.06-4.48.68-9.08-5.22-10.73-.96-.27-1.47-1.87-2.43-2.41-1.72-.96-.88-2.6-1.39-3.85,1.46-.41,2.51.52,3.62,1.17.42.24.69.71,1.08,1.03,2.75,2.28,4.21,1.58,4.21-1.94,0-18.79.5-37.58-.3-56.36.7-6.32-2.86-9.09-8.77-6.81-4.8,1.85-6.53,5.56-5.25,11.18-.8,4.06-2.47,3.84-4.68.95-.12-1.15-.32-2.3-.34-3.45-.09-4.35-1.31-5.12-5.28-3.26-4.23,1.99-5.35,5.62-5.24,9.91ZM196.57,290.25h-52.51c15.1,12.12,40.33,12.06,52.51,0ZM144.1,284.26c6.86-1.44,13.53-2.87,20.2-4.25,10.58-2.2,21.16-4.39,31.76-6.54,2.18-.44,3.85-1.15,3.3-3.85-.64-3.08-2.64-1.11-3.89-.87-9.31,1.8-18.58,3.76-27.87,5.68-7.66,1.58-15.3,3.24-22.97,4.74-2.07.41-2.77,1.41-2.62,3.42.12,1.61.84,2.03,2.1,1.66ZM197.09,258.92c-.49.08-.99.14-1.47.24-16.56,3.48-33.12,6.98-49.7,10.42-2.22.46-4.58.76-3.8,3.82.73,2.87,2.99,1.19,4.44.91,9.29-1.8,18.54-3.76,27.8-5.7,7.47-1.57,14.91-3.26,22.4-4.72,2.09-.41,2.79-1.29,2.64-3.32-.12-1.64-.92-1.95-2.3-1.64ZM144.23,265.45c2.76-.59,5.53-1.2,8.29-1.78,14.16-2.97,28.33-5.95,42.5-8.87,2.28-.47,5.14-.46,4.27-3.91-.94-3.74-3.7-.94-5.17-.67-10.63,1.95-21.18,4.33-31.76,6.56-6.02,1.27-12.04,2.56-18.07,3.73-1.93.38-2.32,1.54-2.29,3.21.03,1.57.77,2.07,2.22,1.73ZM144.46,255.95c.33-.06.66-.1.98-.17,17.04-3.55,34.09-7.09,51.12-10.7.98-.21,2.82.04,2.62-1.59-.24-1.89-2.07-1.06-3.26-1.17-9.1-.87-17.76,1.62-26.51,3.49-8.27,1.77-16.55,3.53-24.84,5.19-2.08.42-2.75,1.49-2.56,3.46.17,1.66,1.16,1.79,2.45,1.5ZM167.12,283.98c.04.27.08.54.13.82,9.79,0,19.58-.1,29.37.05,3.83.06,2.61-2.53,2.72-4.44.08-1.45.39-3.24-2.16-2.71-10.02,2.1-20.03,4.19-30.05,6.28ZM182.94,302.29c-8.7,2.05-16.22,1.88-24.85.03,8.91,6.89,16.59,6.88,24.85-.03ZM160.93,243.01c-.09-.25-.18-.5-.27-.74-5.31,0-10.63.05-15.94-.03-1.89-.03-2.75.61-2.71,2.57.03,1.53.61,2.17,2.12,1.85,5.6-1.21,11.21-2.43,16.81-3.64Z"/>
      <path class="cls-3" d="M248.77,113.5c-5.01-12.1-11.64-23.11-21.31-32.11-.68-.64-.98-1.69-1.45-2.56,14.04-5.13,28.56-8.67,42.88-12.86.78-.23,1.65-.36,2.06.68-.97,3.02-4.24,3.5-6.11,5.53-.82.89-1.62,1.8-.9,3.04.73,1.27,1.94,1.25,2.99.51,3.51-2.47,7.01-4.95,10.39-7.58,1.75-1.36.87-2.93-.15-4.36.68-.24,1.37-.48,2.05-.72,4.69,2.34,7.18-.57,9.46-3.97,8.2-.39,15.63-3.87,23.4-5.96,8.74-2.35,17.39-5.02,26.07-7.57,1.6-.47,3.15-1.11,5.18-.27-2.57,3.68-6.54,5.51-9.91,7.94-17.27,12.44-34.66,24.71-51.99,37.05-.24.17-.33.56-.5.84-8.61,3.81-17.25,7.57-25.82,11.46-4.28,1.94-4.28,2.73-.42,6.06-1.23,2.52-4.17,2.94-5.91,4.84ZM249.88,87.46c1.53.1,8.99-5.21,9.22-6.58.31-1.87-.7-3.29-2.45-2.41-3.07,1.55-6.09,3.46-8.21,6.27-1.16,1.55.22,2.31,1.43,2.73Z"/>
      <path class="cls-3" d="M93.72,173.3c4.96,8.51,9.48,17.32,16.55,24.41,2.67,2.67,5.23,5.46,7.83,8.19-12.79,4.92-26.18,7.89-39.24,11.93-2.99.92-6.06,1.58-9.08,2.36,2.78-3.6,6.95-5.51,10.23-8.5.94-.86,1.66-1.72.94-2.95-.59-1.02-1.82-1.07-2.65-.62-5.04,2.81-9.68,6.19-13.81,10.22-.83.81-.62,2.17.05,3.25-13.59,5.01-27.68,8.38-41.52,12.58-7.61,2.31-15.12,5.04-23.04,6.34,4.34-4.7,10.01-7.74,15.15-11.44,16.69-12.02,33.52-23.83,50.27-35.77,1.02-.73,2.43-1.19,2.72-2.7,5.28-2.4,10.54-4.81,15.82-7.21,2.08-.95,4.03-1.95,2.63-4.8,2.38-1.77,4.75-3.53,7.13-5.3ZM94.27,199.73c-.21-.89-.86-1.98-2.27-1.39-3.24,1.35-5.98,3.54-8.46,5.98-1.05,1.03-.52,2.2.73,2.82,1.81.89,9.99-4.87,10.01-7.4Z"/>
      <path class="cls-2" d="M129.45,61.35c.13,1.22-.07,2.02-.89,2.46-.95.52-2.03.59-2.74-.25-.85-1-1.49-2.19-2.16-3.34-7.06-12.22-14.14-24.44-21.14-36.7-.89-1.57-3.1-3.5-.6-5.13,2.6-1.7,3.39,1.14,4.29,2.69,7.45,12.77,14.8,25.59,22.19,38.4.41.71.81,1.43,1.06,1.88Z"/>
      <path class="cls-2" d="M245.55,20.03c-.65,1.29-1.18,2.5-1.84,3.64-7.22,12.53-14.44,25.06-21.7,37.56-.94,1.62-1.74,4.28-4.32,2.57-2.2-1.45-.36-3.3.49-4.77,7.36-12.83,14.78-25.62,22.18-38.43.75-1.31,1.41-2.77,3.24-2.66,1.24.07,1.34,1.27,1.95,2.1Z"/>
      <path class="cls-2" d="M308.24,172.41c-10.02-2.12-20.89-4.4-31.74-6.73-1.42-.3-2.48-1.09-2.1-2.79.32-1.44,1.46-1.81,2.67-1.56,11.02,2.31,22.03,4.67,33.03,7.05,1.38.3,2.65,1.01,2.17,2.71-.44,1.52-1.72,1.88-4.03,1.32Z"/>
      <path class="cls-2" d="M129.84,5.93c1.57.34,2.14,1.54,2.56,2.83,3.27,10.09,6.54,20.18,9.79,30.28.46,1.43,1.09,3.12-.77,3.88-2.17.89-2.87-.82-3.41-2.49-3.28-10.09-6.55-20.17-9.86-30.25-.65-1.97-.75-3.61,1.7-4.25Z"/>
      <path class="cls-2" d="M106.97,217.7c-.37.54-.83,1.42-1.48,2.15-7.75,8.68-15.52,17.34-23.31,25.98-1.1,1.22-2.43,2.82-4.15,1.22-1.65-1.53-.37-2.95.81-4.25,7.78-8.61,15.52-17.25,23.31-25.85.98-1.08,1.99-2.43,3.77-1.66.82.35,1.16,1.13,1.05,2.41Z"/>
      <path class="cls-2" d="M78.9,35.1c1.54.12,2.37.95,3.15,1.81,6.79,7.54,13.56,15.1,20.33,22.65,1.11,1.23,2.68,2.68.8,4.18-1.63,1.3-3.04-.04-4.22-1.35-6.78-7.55-13.58-15.08-20.37-22.62-.93-1.03-1.7-2.16-1-3.57.26-.52.96-.82,1.31-1.1Z"/>
      <path class="cls-2" d="M269.08,245.37c-.02.89-.35,1.68-1.17,2.04-1.75.78-2.83-.48-3.81-1.55-5.81-6.4-11.58-12.84-17.35-19.29-.44-.49-.82-1.05-1.17-1.61-.62-1-.4-1.93.41-2.69.85-.8,1.9-.88,2.67-.04,6.71,7.38,13.36,14.81,20.02,22.23.21.23.27.6.4.91Z"/>
      <path class="cls-2" d="M254.68,108.67c-3.86-3.33-3.86-4.12.42-6.06,8.58-3.89,17.21-7.65,25.82-11.46,3.71,2.37,1.9,3.75-.85,5.08-7.61,3.67-15.62,6.47-22.87,10.89-.84.51-1.68,1.03-2.52,1.55Z"/>
      <path class="cls-2" d="M60.63,119.78c-8.34-1.78-16.26-3.47-24.18-5.16-1.39-.3-2.69-.89-2.45-2.52.29-1.94,1.8-2.12,3.43-1.77,7.92,1.7,15.83,3.42,23.75,5.1,1.52.32,2.49,1.14,2.16,2.72-.35,1.64-1.72,1.77-2.71,1.63Z"/>
      <path class="cls-2" d="M285.76,119.77c-1.29.18-2.44-.13-2.85-1.42-.51-1.6.45-2.54,1.92-2.86,8.25-1.79,16.5-3.57,24.76-5.28,1.23-.25,2.34.35,2.68,1.67.37,1.43-.58,2.28-1.76,2.54-8.24,1.83-16.5,3.58-24.76,5.35Z"/>
      <path class="cls-2" d="M95.33,87.39c-.54-.31-1.3-.66-1.96-1.14-6.2-4.49-12.4-8.98-18.56-13.51-1.3-.96-3.06-1.96-1.5-3.97,1.6-2.07,3.05-.33,4.26.52,6.25,4.42,12.42,8.94,18.59,13.48,1.03.75,2.37,1.51,1.78,3.17-.37,1.05-1.27,1.46-2.6,1.46Z"/>
      <path class="cls-2" d="M44.95,139.3c3.81,0,7.62-.02,11.43.01,1.21.01,2.39.28,2.56,1.78.19,1.72-.93,2.5-2.38,2.51-7.78.07-15.56.04-23.35,0-1.29,0-2.38-.71-2.33-2.05.05-1.47,1.04-2.34,2.64-2.33,3.81.02,7.62,0,11.43,0,0,.02,0,.04,0,.05Z"/>
      <path class="cls-2" d="M209.42,32.89c-2.14-.46-2.73-1.75-2.19-3.4,2.33-7.26,4.75-14.48,7.13-21.72.42-1.26,1.26-2.08,2.59-1.72,1.29.34,1.91,1.53,1.53,2.74-2.38,7.58-4.84,15.14-7.38,22.68-.22.64-1.18,1.03-1.67,1.43Z"/>
      <path class="cls-2" d="M162.56,19.68c.06.74,0,2.1-1.8,2.36-2.15.32-2.43-1.19-2.59-2.79-.56-5.3-1.14-10.59-1.69-15.89-.16-1.58-.06-3.19,1.97-3.36,1.71-.14,2.15,1.18,2.3,2.63.57,5.46,1.16,10.92,1.82,17.05Z"/>
      <path class="cls-2" d="M36.9,172.67c-1.29.17-2.44-.1-2.82-1.44-.45-1.59.43-2.5,1.97-2.83,5.03-1.08,10.05-2.21,15.1-3.21,1.19-.24,2.36.19,2.63,1.66.26,1.41-.54,2.29-1.78,2.57-5.02,1.14-10.06,2.18-15.1,3.25Z"/>
      <path class="cls-2" d="M86.59,178.6c1.4,2.85-.55,3.85-2.63,4.8-5.27,2.4-10.54,4.81-15.82,7.21-3.16-.48-3.96-2.78-1.35-4.01,6.42-3.02,12.58-6.89,19.8-8Z"/>
      <path class="cls-2" d="M256.49,47.87c-.36,1.26,1.55,2.33.38,3.63-4.08,4.54-8.16,9.08-12.31,13.54-.68.73-1.72.97-2.63.04-.66-.66-1.04-1.65-.52-2.23,4.74-5.28,8.11-11.98,15.13-14.95l-.04-.04Z"/>
      <path class="cls-2" d="M64.56,221.6c-.67-1.08-.88-2.44-.05-3.25,4.12-4.03,8.77-7.42,13.81-10.22.82-.46,2.05-.4,2.65.62.72,1.23,0,2.09-.94,2.95-3.28,2.99-7.45,4.9-10.23,8.5-1.66.8-3.23,1.9-5.23,1.41Z"/>
      <path class="cls-2" d="M81.93,124.32c-4.47-.95-8.7-1.81-12.91-2.78-1.34-.31-2.64-1.02-2.19-2.74.41-1.59,1.68-1.87,3.16-1.56,4.22.9,8.46,1.75,12.68,2.68,1.41.31,2.57,1.11,2.15,2.76-.39,1.54-1.59,2.04-2.89,1.64Z"/>
      <path class="cls-2" d="M269.15,209.63c-.73,1.95-2.06,2.59-3.8,1.4-3.68-2.52-7.26-5.17-10.87-7.79-1.06-.77-1.51-1.82-.81-3.01.53-.9,1.55-1.62,2.48-.98,4.21,2.9,8.33,5.93,12.44,8.96.33.24.36.89.55,1.41Z"/>
      <path class="cls-2" d="M59.39,92.09c.04-1.82.95-2.84,2.2-2.4,4.84,1.71,9.66,3.57,14.03,6.32.7.44.77,1.41.31,2.26-.45.83-1.29,1.43-2.02,1.13-4.6-1.91-9.15-3.93-13.67-6-.48-.22-.69-1.04-.86-1.31Z"/>
      <path class="cls-2" d="M188.41,17.15c-.34,3.45-.63,6.9-1.02,10.34-.17,1.53-.67,3.17-2.58,2.99-1.93-.18-2.02-1.77-1.83-3.39.4-3.44.65-6.89,1.08-10.32.19-1.55.07-3.68,2.52-3.44,2.35.24,2,2.18,1.83,3.83Z"/>
      <path class="cls-2" d="M165.49,47.17c.03.41-.2,1.71-1.9,1.97-1.71.26-2.36-.85-2.53-2.34-.42-3.62-.82-7.24-1.21-10.86-.17-1.54.44-2.75,2.04-2.83,1.66-.09,2.16,1.25,2.32,2.67.4,3.45.78,6.91,1.29,11.39Z"/>
      <path class="cls-2" d="M288.6,191.63c-.02,1.53-.77,2.63-2.08,2.3-4.47-1.16-8.59-3.26-12.63-5.46-.95-.52-.91-1.7-.48-2.68.38-.86,1.29-1.3,2.04-.98,4.22,1.8,8.4,3.72,12.56,5.66.34.16.43.84.58,1.16Z"/>
      <path class="cls-2" d="M277.17,63.8c1.02,1.43,1.9,3,.15,4.36-3.39,2.63-6.89,5.11-10.39,7.58-1.05.74-2.26.76-2.99-.51-.72-1.24.08-2.15.9-3.04,1.87-2.03,5.14-2.51,6.11-5.53,0,0,0,.16,0,.16.68-.37,1.36-.74,2.03-1.11.89-1.76,2.39-2.15,4.19-1.9Z"/>
      <path class="cls-2" d="M286.33,225.83c-1.14-.01-10.78-7.05-11.16-8.08-.34-.93,0-1.61.62-2.22.83-.82,1.81-.84,2.71-.21,3.12,2.21,6.23,4.43,9.3,6.72.87.65,1.13,1.64.6,2.67-.42.81-1.16,1.15-2.06,1.12Z"/>
      <path class="cls-2" d="M263.43,124.53c-1.42.04-2.78.09-3.03-1.75-.23-1.71.85-2.34,2.27-2.65,3.22-.69,6.45-1.36,9.68-2.04,1.5-.32,2.71.08,3,1.7.3,1.69-.94,2.32-2.31,2.63-3.21.73-6.43,1.42-9.6,2.11Z"/>
      <path class="cls-2" d="M256.53,47.91c1.26-4.93,5.17-7.97,8.29-11.57.94-1.09,2.14-1.72,3.46-.65,1.07.87,1.17,2.13.22,3.06-3.61,3.54-5.64,9.2-12,9.12,0,0,.04.04.04.04Z"/>
      <path class="cls-2" d="M207.06,44.32c-1.1,3.28-2.3,7.07-3.66,10.81-.35.95-1.25,1.46-2.44,1.14-1.47-.4-1.83-1.51-1.48-2.68,1.07-3.65,2.24-7.27,3.52-10.84.39-1.1,1.32-2.02,2.74-1.37.98.46,1.45,1.31,1.33,2.95Z"/>
      <path class="cls-2" d="M57.22,88.71c-.27,1.93-1.57,2.7-3.15,2.08-3.36-1.32-6.61-2.93-9.86-4.5-.92-.45-1.52-1.27-1.15-2.43.36-1.12,1.31-1.7,2.29-1.42,3.96,1.14,7.68,2.88,11.22,4.97.35.2.44.85.64,1.29Z"/>
      <path class="cls-2" d="M75.43,143.63c-1.81,0-3.62.08-5.43-.03-1.27-.08-2.25-.84-2.22-2.18.03-1.32,1.01-2.08,2.3-2.1,3.45-.05,6.91-.04,10.36,0,1.24.02,2.31.46,2.42,1.92.12,1.75-1.11,2.29-2.5,2.39-1.64.12-3.29.03-4.93.03v-.04Z"/>
      <path class="cls-2" d="M287.64,139.32c1.81,0,3.63-.05,5.44.02,1.29.05,2.26.71,2.3,2.09.03,1.4-.94,2.14-2.21,2.17-3.63.09-7.26.08-10.89.05-1.5-.01-2.65-.72-2.51-2.35.11-1.27,1.04-1.98,2.42-1.96,1.82.02,3.63,0,5.45,0,0,0,0-.01,0-.02Z"/>
      <path class="cls-2" d="M59.32,56.97c1.65-.06,10.85,6.57,11.12,7.67.22.88-.03,1.61-.75,2.18-.89.7-1.9.72-2.75.12-2.83-1.98-5.61-4.02-8.37-6.11-.82-.62-1.34-1.6-.72-2.59.39-.62,1.16-1.01,1.46-1.26Z"/>
      <path class="cls-2" d="M292.17,90.96c-1.93,0-2.71-.55-2.97-1.62-.26-1.07.19-2.03,1.16-2.48,3.28-1.5,6.59-2.94,9.92-4.31,1.22-.5,2.29-.02,2.86,1.19.39.82.19,1.76-.6,2.16-3.64,1.85-7.34,3.59-10.37,5.06Z"/>
      <path class="cls-2" d="M307.61,143.71c-1.87-.77-6.09,1.61-6.19-2.13-.11-4.03,4.09-1.67,6.36-2.23.78-.19,1.67-.13,2.48,0,1.9.29,5.14-1.1,5,2.23-.13,3.02-3.27,1.9-5.26,2.13-.66.07-1.33.01-2.39.01Z"/>
      <path class="cls-2" d="M87.9,105.89c-2.23-1.01-5.28-2.3-8.23-3.79-.88-.44-1.36-1.48-.72-2.57.54-.92,1.27-1.69,2.42-1.21,3.06,1.29,6.13,2.57,9.08,4.08.81.41,1.08,1.6.46,2.68-.51.88-1.24,1-3.01.81Z"/>
      <path class="cls-2" d="M185.76,43.24c-.28,2.13-.61,4.25-.83,6.37-.16,1.47-.58,2.63-2.34,2.46-1.7-.16-2.12-1.34-1.97-2.82.21-2.13.45-4.25.72-6.37.2-1.6.07-3.61,2.49-3.43,2.54.18,1.74,2.28,1.93,3.79Z"/>
      <path class="cls-2" d="M269.46,139.29c.99,0,1.98-.03,2.96,0,1.39.04,2.81.32,2.93,1.98.15,2.02-1.44,2.34-2.99,2.4-1.81.07-3.62.05-5.43.02-1.67-.02-3.65,0-3.63-2.29.02-2.38,2.07-2.09,3.69-2.14.82-.03,1.65,0,2.47,0,0,0,0,.01,0,.02Z"/>
      <path class="cls-2" d="M63.86,166.95c-1.9.1-3.47-.57-2.94-2.07,1.41-3.96,5.55-2.5,8.42-3.58,1.39-.52,2.95.63,2.48,2.11-1.33,4.19-5.69,2.01-7.96,3.53Z"/>
      <path class="cls-2" d="M54.71,194.92c.05,1.3-.66,2-1.63,2.33-3,1.03-5.51,3.73-9.04,2.9-.96-.23-1.68-1.48-.97-2.38,2.26-2.86,5.92-3.26,8.99-4.67,1.53-.71,2.4.45,2.65,1.83Z"/>
      <path class="cls-2" d="M189.72,5.06c-.81,2.04.91,6.37-2.89,5.92-3.6-.42-1.39-4.32-1.41-6.67-.02-1.76-.39-4.62,2.62-4.24,2.97.38,1.57,3.02,1.68,4.98Z"/>
      <path class="cls-2" d="M82.55,158.46c2-.15,3.66.14,3.24,1.86-.93,3.89-4.81,2.47-7.34,3.45-1.55.6-3.48-.39-2.96-2.14,1.12-3.79,5.17-1.82,7.06-3.17Z"/>
      <path class="cls-2" d="M236.06,209.81c1.96-.03,7.46,5.75,7.3,7.26-.14,1.31-1.09,2.38-2.32,1.88-3.16-1.28-5.19-3.91-6.47-6.95-.55-1.29.8-1.91,1.5-2.19Z"/>
      <path class="cls-2" d="M296,193.8c2.23,1.45,6.03,1.15,7.28,4.61.39,1.08-1.09,2.44-2.21,2.06-2.85-.96-6.39-1.16-7.64-4.58-.44-1.22.77-2.05,2.56-2.08Z"/>
      <path class="cls-2" d="M258.09,176.8c2.29,1.8,6.34,1.22,7.35,4.94.35,1.29-1.17,2.32-2.29,1.87-2.78-1.11-6.53-1.02-7.55-4.72-.39-1.42,1.13-1.78,2.5-2.1Z"/>
      <path class="cls-2" d="M288.68,59.12c-2.28,3.41-4.77,6.31-9.46,3.97.97-2.96,3.65-4.15,5.96-5.65,1.86-1.21,3.1-.49,3.5,1.68Z"/>
      <path class="cls-2" d="M112.62,71.49c-.12,1.73-1.06,2.6-2.27,2.26-2.47-.71-4.1-2.62-4.85-5-.38-1.21.73-2.43,1.96-2.23,2.88.47,3.82,3.11,5.16,4.97Z"/>
      <path class="cls-3" d="M272.98,65.71c-.68.37-1.36.74-2.03,1.11.21-1.23.91-1.56,2.03-1.11Z"/>
      <path class="cls-1" d="M98.17,170.33c-12.33-26.64-4.86-63.43,17.68-84.65,21.66-20.39,47.18-27.31,76.05-19.51,9.99,2.7,19.5,7.07,27.45,14.12-6.12,2-12.55,3.03-18.42,5.83-.34.05-.69.09-1.03.14-.42.1-.84.21-1.26.31-2.16-1.19-4.42-2.21-6.94-1.82-3.58.56-7.1.3-10.69.08-5.45-.33-6.32.99-7.27,8.83-1.71.37-3.43.74-5.14,1.1-.09-3.64.26-7.28-4.29-9.06-5.25-2.05-10.16-1.93-14.54,1.56-2.21,1.76-4.2,2.54-7.08,2.42-5.78-.25-10.85,3.43-12.26,9.01-.72,2.88-1.95,4.68-4.6,5.75-.74.3-1.55.85-1.95,1.51-3.95,6.52-7.87,13.05-11.65,19.66-.62,1.08-.91,2.66-.67,3.86,1.99,9.82,1.03,19.87,2.54,29.72-5.31,3.71-10.62,7.42-15.93,11.13Z"/>
      <path class="cls-1" d="M244.91,116.67c10.01,28.91,1.47,62.23-21.4,82.53-8.15,7.23-15.89,14.68-20.34,24.87-.66,1.52-1.16,3.12-1.84,4.63-1.29,2.86-.36,7.88-2.68,8.57-4.44,1.32-9.51.53-14.32.6-2.09.03-1.85-1.52-1.77-2.81.86-13.81,4.81-26.82,13.96-37.14,3.4-3.83,7.99-7.95,14.08-9.31,8.04-1.79,13.55-9.14,14.04-17.4.11-1.91.45-3.45,1.86-4.89,2.02-2.07,3.63-4.78,3.21-7.61-1.19-8.06-.33-16.09-.46-24.14-.03-2.09-1.04-4.17-1.61-6.26,5.76-3.89,11.52-7.78,17.28-11.67Z"/>
      <path class="cls-3" d="M184.36,89.93c4.07-.08,8.17-2.05,12.2.19,2.1,1.17,4.89,2.22.57,4.35-1.69.83-3.33,2.39-2.04,4.35,1.34,2.02,2.8.08,4.23-.57,2.59-1.18,5.23-1.2,7.42.86,2.18,2.04,2.72,4.49,1.05,7.16-.7,1.11-.96,2.21.29,3.02,1.19.78,2.12.02,3.11-.7,3.59-2.62,5.83-1.83,6.55,2.62.34,2.13,1.11,3.56,2.67,5.02,4.1,3.84,4.49,7.3,1.77,12-2.65,4.57-6.04,5.87-11.4,4.31-.79-.23-1.53-.64-2.31-.92-1.34-.48-2.33.12-2.84,1.29-.5,1.13.41,1.82,1.17,2.47,1.65,1.41,4.2,1.17,5.61,3.03-1.18,1.97-3.09,3.14-4.84,4.49l.06-.07c-3.39,1.25-5.34,5.09-9.35,5.22-.12-7.02-4.3-11.18-11.07-11.04-1.71.04-3.68.09-3.84,2.21-.16,2.13,1.92,1.99,3.29,2.02,3.61.08,6.48,1.15,7.85,4.82.65,1.76,2.6,1.16,3.77,1.98.28,2.28-3.66,2.56-2.5,5.26-2.09-.5-4.18-.98-6.26-1.5-1.48-.37-3.12-.9-3.67,1.17-.45,1.69,1.08,2.25,2.25,2.8,1.2.56,2.52.86,3.71,1.44,4.31,2.12,7.97,4.87,8.89,9.99.31,1.73-.21,4.17,2.31,4.26,2.41.08,2.35-2.34,2.77-4.06.91,1.13,1.83,2.27,2.74,3.4-.52,2.94-2.75,5.91.2,8.77-4.24,1.46-8.48,2.91-12.71,4.37-1.1.49-2.21.98-3.31,1.46-4.74-.2-8.9,2.18-13.42,3-1.67-3.68-.8-7.57-.83-11.35-.14-16.81-.11-33.63-.04-50.45,0-1.83-1.02-4.58,1.42-5.24,1.99-.54,4.24.55,5.47,2.69.71,1.25,1.32,3.22,3.21,1.82,1.66-1.24.9-3.07-.01-4.51-1.51-2.39-3.93-3.74-6.57-4.12-2.75-.4-3.62-1.63-3.55-4.26.19-7.15.21-14.31.29-21.47,2.11.2,4.07-.15,5.72-1.59ZM194.74,129.56c.14,1.15.21,2.31.43,3.44.22,1.17.68,2.42,2.09,2.39,1.75-.03,2-1.43,1.97-2.85-.02-.83-.12-1.66-.09-2.48.26-6.26,3.35-8.68,9.56-7.62,1.13.19,2.31.21,3.46.24,1.24.03,2.43-.26,2.62-1.69.21-1.54-.94-1.96-2.18-2.07-5.29-.44-9.16-2.66-10.38-8.23-.28-1.28-1.07-2.22-2.42-1.91-1.55.36-2.37,2.03-1.57,3.08,3.84,5.07.43,8.58-2.19,12.43-1.03,1.51-1.33,3.38-1.31,5.27ZM183.37,176.21c.16,1.11-.16,2.74,1.51,3.14,1.73.42,2.3-.95,2.56-2.32.56-2.99,1.82-1.91,3.3-.71.88.72,1.92,1.31,2.97,1.73,1.43.58,3.08.87,3.95-.8,1.07-2.06-.8-2.55-2.11-3.11-3.47-1.47-4.71-3.2-.99-5.87.81-.58,1.48-1.44.89-2.55-.54-1.01-1.37-1.18-2.52-.92-3.87.88-9.41,7.32-9.57,11.41ZM188.31,99.15c0-1.4.83-3.05-.95-3.97-1.01-.52-1.86-.09-2.5.85-2.38,3.5-.4,11.74,3.34,13.82,1.19.66,2.43,1.29,3.5-.15.91-1.22.22-2.13-.71-2.96-2.28-2.04-3.05-4.62-2.68-7.59Z"/>
      <path class="cls-3" d="M133.02,106.93c.34-.76.68-1.51,1.02-2.27,3.81-.41,7.55-1.07,10.86-3.19,2.21,2.89,3.88,3.11,4.68-.95,4.7-1.36,9.59-2.12,14.02-4.37.8,18.78.31,37.58.3,56.36,0,3.53-1.46,4.23-4.21,1.94-.38-.32-.66-.79-1.08-1.03-1.11-.65-2.16-1.58-3.62-1.17.51,1.25-.33,2.9,1.39,3.85.97.54,1.48,2.14,2.43,2.41,5.89,1.65,5.27,6.25,5.22,10.73-.08,6.15-.13,12.31.04,18.46.08,2.84-1.06,4.08-3.69,4.96-7.71,2.56-14.44,1.9-19.59-5.06-.88-1.18-1.92-1.72-3.35-1.79-5.25-.27-7.19-3.44-7.17-8.29,0-.66.09-1.36-.07-1.99-.49-1.86,1.62-5-1.59-5.38-2.76-.33-2.24,3.17-3.56,5.01-3.56-3.02-5.27-6.63-4.32-11.32.26-1.29.94-2.79-.11-3.83-4.69-4.72-.9-6.57,2.75-8.52,3.43-1.6,6.68-3.45,9.11-6.46,1.82-1.36,4.08-2.14,5.4-4.14,1.46.56,2.7-1.56,4.22-.35.82,2.22-1.4,3.07-2.12,4.6-1.06,2.28-3.88,5.06-.71,6.79,3.07,1.66,2.99-2.49,4.05-4.18,1.39-2.22,3.23-3.67,5.58-4.66,2.51-1.06,3.18.98,4.67,2.22,1.93,1.6,2.85-.09,2.87-2.12.05-4.79-2.52-8.01-6.27-10.54-.54-2.31-1.77-4.25-3.35-5.98,4.65-2.54,6.59.95,8.71,3.95.91,1.29,1.78,2.69,3.55,1.61,1.86-1.14.67-2.64.04-3.92-.43-.88-1.06-1.69-1.69-2.46-4.27-5.22-4.32-10.44-.32-15.78.96-1.28,1.44-2.94,2.02-4.47.47-1.23.91-2.78-.7-3.38-1.58-.58-2.38.76-2.88,2.06-1.58,4.05-4.8,5.7-8.86,6.27-1.55.22-3.77-.06-3.7,2.34.06,2.03,1.95,2.01,3.43,1.89,1.9-.15,2.71,1.01,3.31,2.43.78,1.83-.7,2.6-1.76,3.64-1.28,1.25-3.04,1.25-4.48,2.05.11-1.31-.82-2-1.64-2.76.82-2.63-.82-3.13-2.85-3.3-.83-4-4.53-6.27-5.97-9.91ZM148.4,163.15c1.57-1.67,4.83-1.57,3.59-4-1.12-2.21-3.58-1.27-5.34-.57-4.6,1.85-7.66,5.2-8.58,10.17-.32,1.71-.9,3.99,1.62,4.49,2.11.41,2.14-1.73,2.41-3.08.87-4.31,3.04-3.88,6.07-2.06,3.53,2.12,4.58,5.48,5.24,9.14.25,1.42,0,3.39,2.12,3.28,2.48-.14,1.97-2.36,1.86-3.86-.45-5.85-3.36-10.28-8.99-13.51ZM145.4,176.93c-.74.08-1.27.27-1.67.94-2.01,3.38,2.15,11.64,6.14,12.15,1.09.14,2.02-.07,2.54-1.07.58-1.12-.1-1.99-.99-2.47-2.66-1.43-3.3-3.99-3.93-6.59-.31-1.28-.46-2.67-2.08-2.96ZM135.03,158.61c-.73-1.5-1.66-3.28-3.75-3.88-2.09-.6-4.24-.78-6.18.56-.94.66-1.31,2.16-.45,2.46,3.07,1.07,6.15,2.03,9.11,3.42.66.31,1.5-1.07,1.27-2.57Z"/>
      <path class="cls-1" d="M174.03,189.8c2.89,6.79,8.18,9.19,15.14,8.01.64,1.84-.49,2.84-1.12,3.94-5.63,9.81-9.07,20.33-9.69,31.63-.2,3.6-1.25,4.75-4.96,4.63-8.05-.26-8.09-.03-9.18-8.05-1.49-11-5.07-21.26-11.02-30.7,5.48-2.53,12.55-1.08,15.48-7.79,1.81-.46,3.76-.47,5.34-1.66Z"/>
      <path class="cls-3" d="M244.91,116.67c-5.76,3.89-11.52,7.78-17.28,11.67,1.26-5.71.32-10.82-4.08-14.98-1.43-1.35-1.17-3.4-2.04-4.98-.78-1.44-1.15-3.54-2.74-3.99-6.19-1.76-7.96-8.47-13.22-11.42-2.12-1.19-3.8-4.06-4.63-6.85,5.87-2.79,12.3-3.82,18.42-5.82,12.35,9.43,20.84,21.59,25.57,36.38Z"/>
      <path class="cls-3" d="M98.17,170.33c5.31-3.71,10.62-7.42,15.93-11.13,1.64,1.53,2.59,3.1,2.25,5.66-.42,3.16.31,6.73,2.28,9,5.18,5.94,8.8,13.41,17.3,16.25,3.62,1.21,6.33,5.1,9.45,7.78-6.55,3.42-14.01,4.04-20.78,6.79-12.01-8.99-21.48-19.94-26.44-34.36Z"/>
      <path class="cls-1" d="M124.61,204.69c6.76-2.75,14.23-3.37,20.78-6.79,2.12.31,2.92,2.09,3.88,3.58,6.42,9.95,9.86,20.91,11.06,32.65.27,2.65-.14,4.03-3.29,3.85-4.46-.26-9.43,1.12-13.3-.43-4.11-1.64-2.56-7.51-4.22-11.33-3.57-8.21-9-15.01-14.9-21.53Z"/>
      <path class="cls-1" d="M132.47,145.03c-2.43,3.01-5.68,4.85-9.11,6.46-.5-.63-.88-1.49-1.53-1.84-5.8-3.18-6.65-8.76-1.9-13.13,1.31-1.21,4.5-1.65,2.63-4.22-1.66-2.29-3.86-.14-5.74.63-1.54-4.86-.94-7.14,3.22-11.91,1.57,2.11,2.13,4.88,4.34,6.39,1.35.92,2.83,2.28,4.41.71,1.83-1.81.1-2.81-1.17-3.93-3.72-3.3-4.08-7.68-2.66-11.9,1.15-3.43,3.91-5.77,8.05-5.36,1.43,3.63,5.13,5.91,5.96,9.91-2.75.56-4.8-.49-6.44-2.68-.83-1.11-2-1.99-3.36-.9-1.56,1.24-.78,2.63.08,3.93,2.7,4.06,7.51,5.2,12.56,2.95.83.75,1.75,1.45,1.64,2.76-1.73,1.68-4.47,3.71-2.56,5.95,1.34,1.57,3.71-.9,5.43-2.07.13-.09.31-.09.47-.13,1.58,1.74,2.81,3.67,3.36,5.98-2.27-.27-2.98,1.09-3.15,3.02-1.48,1.75-4.8,1.71-4.8,4.92l-.13-.03c-1.52-1.21-2.76.91-4.21.35.09-1.36,1.02-2.88-.62-3.94-.96-.62-2.01-.39-2.68.41-2.63,3.11-5.84,3.24-9.4,2.11-1.46-.47-2.73-.06-3.11,1.49-.39,1.62.91,2.49,2.17,2.76,2.71.59,5.48.89,8.23,1.31Z"/>
      <path class="cls-1" d="M208.49,170.8c-.91-1.13-1.83-2.27-2.74-3.4-.31-.76-.55-1.56-.95-2.27-1.67-2.93-2.43-4.97,1.82-6.96,4.64-2.17,5.46-7.12,5.38-11.99-.05-3.08-1.46-4.23-4.44-3.28,1.74-1.35,3.66-2.51,4.84-4.49,3.2-.26,5.89-1.69,8.59-3.3,1-.6,2.42-3.53,3.76-.64.86,1.86.99,4.32-1.51,5.62-.57.3-1.28.34-1.93.5-1.1.27-1.78.99-1.73,2.1.06,1.37.95,1.96,2.29,2.14,1.08.14,3.38-.77,2.64,1.53-1.18,3.65.26,6.77.94,10.13.46,2.3-.17,4.62-2.06,6.35-2.42-1.21-3-6.43-6.23-4.24-3.17,2.15.95,4.49,1.9,6.65,2.15,4.88,1.35,10.3-2.61,14.73-4.72,5.28-13.69,7.01-20.48,3.96,4.24-1.45,8.48-2.91,12.71-4.36,5.48.41,1.74-6.45,5.7-7.32.27-.06.52-1.17.44-1.74-.21-1.39-1.27-1.68-2.54-1.72-1.69-.05-2.41,1.58-3.79,2.02Z"/>
      <path class="cls-3" d="M174.03,189.8c-1.58,1.18-3.53,1.19-5.34,1.66-.94-13.11-.33-26.24-.36-39.36-.03-19.11.16-38.22.25-57.33,1.71-.37,3.43-.73,5.14-1.1,1.07,4.59.71,9.26.72,13.9.05,25.27.04,50.54.01,75.81,0,2.14-.28,4.29-.43,6.43Z"/>
      <path class="cls-1" d="M196.57,290.25c-12.18,12.06-37.41,12.12-52.51,0h52.51Z"/>
      <path class="cls-1" d="M144.1,284.26c-1.26.37-1.97-.05-2.1-1.66-.15-2.01.55-3.02,2.62-3.42,7.67-1.5,15.32-3.16,22.97-4.74,9.28-1.92,18.56-3.87,27.87-5.68,1.25-.24,3.26-2.22,3.89.87.56,2.7-1.12,3.41-3.3,3.85-10.59,2.15-21.17,4.34-31.76,6.54-6.68,1.39-13.35,2.81-20.2,4.25Z"/>
      <path class="cls-1" d="M197.09,258.92c1.38-.31,2.18,0,2.3,1.63.15,2.03-.55,2.92-2.64,3.32-7.49,1.46-14.93,3.15-22.4,4.72-9.26,1.94-18.51,3.9-27.8,5.7-1.46.28-3.72,1.96-4.44-.91-.78-3.06,1.58-3.36,3.8-3.82,16.57-3.44,33.13-6.94,49.7-10.42.49-.1.98-.16,1.48-.24Z"/>
      <path class="cls-1" d="M144.23,265.45c-1.46.35-2.2-.16-2.23-1.72-.03-1.67.36-2.84,2.29-3.21,6.04-1.18,12.05-2.47,18.07-3.73,10.58-2.23,21.13-4.6,31.76-6.56,1.46-.27,4.23-3.07,5.17.67.87,3.45-1.99,3.44-4.27,3.91-14.17,2.93-28.33,5.91-42.5,8.87-2.77.58-5.53,1.19-8.29,1.78Z"/>
      <path class="cls-1" d="M144.46,255.94c-1.3.29-2.29.16-2.45-1.5-.2-1.97.47-3.05,2.56-3.46,8.29-1.66,16.57-3.42,24.84-5.19,8.75-1.87,17.41-4.36,26.51-3.49,1.2.11,3.02-.72,3.26,1.17.21,1.63-1.63,1.39-2.62,1.59-17.03,3.61-34.08,7.15-51.12,10.7-.32.07-.65.11-.98.17Z"/>
      <path class="cls-1" d="M167.12,283.98c10.02-2.09,20.04-4.18,30.05-6.28,2.55-.53,2.25,1.26,2.16,2.71-.11,1.91,1.11,4.5-2.72,4.44-9.79-.15-19.58-.05-29.37-.05-.04-.27-.08-.54-.13-.82Z"/>
      <path class="cls-1" d="M163.59,96.15c-4.43,2.24-9.31,3.01-14.02,4.37-1.29-5.62.45-9.33,5.24-11.18,5.91-2.28,9.47.49,8.77,6.81Z"/>
      <path class="cls-1" d="M179.25,188.4c4.51-.83,8.68-3.2,13.42-3,.19,4,4.11,3.17,6.56,5.06-5.01,2.89-10.44,2.61-15.61,2.79-2.22.07-4.74-1.58-4.37-4.84Z"/>
      <path class="cls-1" d="M144.89,101.46c-3.31,2.13-7.05,2.78-10.86,3.19-.11-4.28,1.01-7.92,5.24-9.91,3.96-1.86,5.18-1.09,5.28,3.26.02,1.15.23,2.3.34,3.45Z"/>
      <path class="cls-1" d="M182.94,302.29c-8.26,6.91-15.94,6.92-24.85.03,8.63,1.86,16.15,2.02,24.85-.03Z"/>
      <path class="cls-1" d="M160.93,243.01c-5.6,1.21-11.2,2.43-16.81,3.64-1.5.32-2.09-.32-2.12-1.85-.03-1.96.83-2.59,2.71-2.57,5.31.08,10.63.03,15.94.03.09.25.18.5.27.74Z"/>
      <path class="cls-1" d="M184.36,89.93c-1.65,1.44-3.61,1.79-5.72,1.59.8-4.48,3.53-2.06,5.72-1.59Z"/>
      <path class="cls-3" d="M198.63,86.56c.42-.1.84-.21,1.26-.31-.42.1-.84.21-1.26.31Z"/>
      <path class="cls-2" d="M249.88,87.46c-1.22-.42-2.6-1.18-1.43-2.73,2.12-2.81,5.13-4.72,8.21-6.27,1.74-.88,2.76.54,2.45,2.41-.23,1.37-7.69,6.68-9.22,6.58Z"/>
      <path class="cls-2" d="M94.27,199.73c-.02,2.53-8.19,8.29-10.01,7.4-1.25-.61-1.78-1.78-.73-2.82,2.48-2.44,5.22-4.63,8.46-5.98,1.41-.59,2.05.51,2.27,1.39Z"/>
      <path class="cls-2" d="M207.55,142.89c2.99-.95,4.39.2,4.44,3.28.08,4.87-.74,9.82-5.38,11.99-4.24,1.99-3.49,4.04-1.82,6.96.4.71.64,1.51.95,2.27-.42,1.72-.36,4.14-2.77,4.06-2.52-.09-2-2.53-2.31-4.26-.92-5.12-4.58-7.88-8.89-9.99-1.19-.58-2.51-.88-3.71-1.44-1.18-.55-2.7-1.1-2.25-2.8.55-2.07,2.18-1.53,3.67-1.17,2.08.52,4.18,1,6.26,1.49,4.17,4.29,9.95,2.8,11.4-3.12.57-2.35.33-4.9.46-7.35l-.06.07Z"/>
      <path class="cls-2" d="M194.74,129.56c-.02-1.88.28-3.76,1.31-5.27,2.62-3.84,6.03-7.35,2.19-12.43-.8-1.05.03-2.72,1.57-3.08,1.34-.32,2.14.63,2.42,1.91,1.22,5.57,5.08,7.79,10.38,8.23,1.25.1,2.4.52,2.18,2.07-.2,1.43-1.39,1.72-2.62,1.69-1.16-.03-2.33-.04-3.46-.24-6.22-1.07-9.3,1.36-9.56,7.62-.03.82.07,1.65.09,2.48.03,1.42-.22,2.82-1.97,2.85-1.41.03-1.86-1.22-2.09-2.39-.22-1.13-.29-2.29-.43-3.44Z"/>
      <path class="cls-2" d="M183.37,176.21c.16-4.09,5.7-10.53,9.57-11.41,1.14-.26,1.98-.09,2.52.92.59,1.11-.08,1.96-.89,2.55-3.72,2.68-2.48,4.4.99,5.87,1.3.55,3.18,1.05,2.11,3.11-.87,1.67-2.51,1.38-3.95.8-1.06-.43-2.09-1.02-2.97-1.73-1.48-1.2-2.75-2.28-3.3.71-.26,1.37-.83,2.74-2.56,2.32-1.68-.4-1.35-2.03-1.51-3.14Z"/>
      <path class="cls-1" d="M207.61,142.82c-.13,2.46.12,5.01-.46,7.35-1.45,5.92-7.23,7.4-11.4,3.12-1.15-2.7,2.78-2.98,2.51-5.26,0,0,0,.01,0,.01,4.02-.13,5.96-3.97,9.35-5.22Z"/>
      <path class="cls-2" d="M198.26,148.04s0-.01,0-.01c-1.18-.82-3.12-.22-3.77-1.98-1.36-3.67-4.23-4.74-7.85-4.82-1.37-.03-3.45.11-3.29-2.02.16-2.13,2.13-2.18,3.84-2.21,6.77-.14,10.95,4.02,11.07,11.04Z"/>
      <path class="cls-2" d="M188.3,99.15c-.36,2.98.41,5.56,2.69,7.59.93.83,1.62,1.74.71,2.96-1.07,1.44-2.31.81-3.5.15-3.74-2.07-5.72-10.31-3.34-13.82.64-.94,1.49-1.38,2.5-.85,1.78.92.95,2.56.94,3.97Z"/>
      <path class="cls-2" d="M208.49,170.8c1.39-.43,2.11-2.07,3.79-2.02,1.27.04,2.33.33,2.54,1.72.08.57-.16,1.68-.44,1.74-3.97.88-.23,7.73-5.7,7.32-2.93-2.86-.7-5.83-.19-8.77Z"/>
      <path class="cls-2" d="M146.81,126.65c-.16.04-.34.04-.47.13-1.71,1.17-4.08,3.64-5.43,2.07-1.91-2.24.83-4.27,2.56-5.95,1.43-.8,3.2-.8,4.48-2.05,1.06-1.04,2.54-1.81,1.76-3.64-.6-1.42-1.41-2.59-3.31-2.43-1.48.12-3.37.14-3.43-1.89-.07-2.4,2.16-2.12,3.7-2.34,4.06-.57,7.28-2.23,8.86-6.27.51-1.3,1.31-2.64,2.88-2.06,1.61.59,1.17,2.14.7,3.38-.58,1.53-1.06,3.19-2.02,4.47-4,5.35-3.95,10.56.32,15.78.63.77,1.26,1.57,1.69,2.46.63,1.28,1.82,2.78-.04,3.92-1.77,1.08-2.64-.33-3.55-1.61-2.11-3-4.06-6.49-8.71-3.95Z"/>
      <path class="cls-2" d="M148.4,163.15c5.64,3.24,8.54,7.66,8.99,13.51.12,1.5.63,3.72-1.86,3.86-2.12.12-1.87-1.86-2.12-3.28-.66-3.66-1.71-7.02-5.24-9.14-3.04-1.82-5.2-2.25-6.07,2.06-.27,1.34-.3,3.49-2.41,3.08-2.53-.49-1.94-2.78-1.62-4.49.92-4.97,3.98-8.33,8.58-10.17,1.76-.71,4.22-1.64,5.34.57,1.24,2.44-2.02,2.33-3.59,4Z"/>
      <path class="cls-2" d="M147.02,135.65c.17-1.93.89-3.29,3.15-3.02,3.74,2.53,6.31,5.76,6.26,10.55-.02,2.03-.94,3.72-2.87,2.12-1.49-1.24-2.16-3.27-4.67-2.22-2.35.99-4.19,2.44-5.58,4.66-1.06,1.69-.98,5.85-4.05,4.18-3.18-1.72-.36-4.51.71-6.79.71-1.53,2.94-2.37,2.12-4.6,0,0,.13.03.14.04,2.11.96,3.17-1.21,4.84-1.6,4.79-1.14.8-2.22-.05-3.32Z"/>
      <path class="cls-2" d="M132.47,145.03c-2.75-.42-5.52-.72-8.23-1.31-1.26-.28-2.56-1.14-2.17-2.76.38-1.56,1.65-1.96,3.11-1.49,3.56,1.14,6.77,1,9.4-2.11.67-.79,1.72-1.03,2.68-.41,1.64,1.06.71,2.58.62,3.94-1.33,2-3.58,2.79-5.41,4.14Z"/>
      <path class="cls-2" d="M145.4,176.93c1.62.28,1.77,1.68,2.08,2.96.63,2.6,1.27,5.16,3.93,6.59.9.48,1.57,1.35.99,2.47-.51,1-1.44,1.21-2.54,1.07-3.99-.51-8.15-8.76-6.14-12.15.4-.67.93-.87,1.67-.94Z"/>
      <path class="cls-2" d="M141.83,120.14c-5.06,2.25-9.87,1.12-12.56-2.95-.86-1.3-1.64-2.69-.08-3.93,1.37-1.09,2.53-.21,3.36.9,1.64,2.19,3.69,3.24,6.44,2.68,2.03.17,3.67.67,2.85,3.3Z"/>
      <path class="cls-2" d="M135.03,158.61c.23,1.51-.61,2.88-1.27,2.57-2.96-1.39-6.05-2.35-9.11-3.42-.87-.3-.5-1.81.45-2.46,1.93-1.35,4.08-1.16,6.18-.56,2.09.6,3.03,2.38,3.75,3.88Z"/>
      <path class="cls-3" d="M147.02,135.65c.85,1.1,4.84,2.18.05,3.32-1.67.4-2.74,2.56-4.84,1.6-.01-3.21,3.31-3.17,4.79-4.92Z"/>
    </g>
  </g>
</svg>