<?xml version="1.0" encoding="UTF-8"?>
<svg id="Camada_1" data-name="Camada 1" xmlns="http://www.w3.org/2000/svg" viewBox="0 0 500 500">
  <defs>
    <style>
      .cls-1 {
        fill: #ed6b30;
        stroke-width: 0px;
      }

      .cls-2 {
        fill: #f9fafb;
        font-family: StretchProRegular, 'Stretch Pro';
        font-size: 46.77px;
      }

      .cls-3 {
        letter-spacing: -.03em;
      }
    </style>
  </defs>
  <g>
    <path class="cls-1" d="M153.81,402.89c-2.01.66-4.29.91-5.97,2.05-7.81,5.27-15.33,10.98-23.24,16.08-2.21,1.43-5.4,1.34-8.7,2.08.73-2.06,1.24-3.52,2.27-6.41-3.66,2.09-6.19,3.53-9.63,5.48,2.12-5.25,3.88-9.62,5.64-13.99-.41-.24-.81-.47-1.22-.71-2.22,1.07-4.43,2.15-7.32,3.55v-5.43c-1.92,1.46-3.31,2.53-5.09,3.88-.65-1.53-1.18-2.75-1.8-4.19-.92.58-1.69,1.07-2.96,1.87,1.43-9.7,6.76-17.02,11.18-25.24-4.5,2.36-8.99,4.73-13.8,7.25-1.46-5.43-4.08-.88-6.74.19-.65-3.13-1.23-5.96-2.08-10.09-1.91,2.93-3.13,4.79-4.32,6.62-2.82-3.73-2.78-6.17.68-15.39-8.18,3.48-14.01,8.87-20.11,15.44.14-2.12.22-3.3.35-5.21-2.1.19-4.14.38-6.02.56v-9.18c-2.9.9-4.88,1.51-6.59,2.03-.9-2.94-2.38-5.32-2.13-7.5.35-3.11,1.36-6.52,3.18-9,4.35-5.96,9.34-11.45,14.07-17.13-.29-.29-.58-.59-.86-.88-7.71,7.19-15.43,14.39-23.14,21.58,3.58-9.51,8.44-17.79,16.68-24.05,3.61-2.75,9.43-4.4,9.2-12.44-4.13,3.75-7.45,6.77-11.25,10.22-.47-1.72-.81-2.96-1.32-4.85-1.84,1.51-3.26,2.68-4.55,3.74-.64-4.12-1.27-8.17-2-12.86-2.93,1.54-4.65,2.45-6.4,3.37.52-4.9-.17-10.25,1.82-14.28,2.79-5.64,7.31-10.53,11.59-15.29,3.59-3.99,7.89-7.33,11.88-10.95-.43-.48-.86-.96-1.29-1.44-10.49,9.04-20.98,18.09-31.47,27.13-.33-.12-.66-.25-1-.37,2-4.59,4-9.19,6.5-14.95-4.88,3.72-8.9,6.8-12.93,9.87l-.85-.92c2.61-3.11,5.22-6.21,7.83-9.32-.48-.64-.96-1.27-1.43-1.91-2.52,1.38-5.05,2.76-8,4.37,2.12-10.99,11.53-16.85,16.3-25.81-7.67,5.92-15.33,11.85-23,17.77-.31-.32-.62-.63-.93-.95,10.69-14.75,27.13-24.01,37.93-38.75-6.61,5.05-13.23,10.1-19.84,15.16-.36-.26-.72-.51-1.09-.77,2.26-3.28,3.99-7.16,6.88-9.72,12.45-11.03,25.25-21.67,37.92-32.46,4.41-3.75,8.81-7.5,13.22-11.26-.44-.53-.88-1.07-1.31-1.6-3.21,2.51-6.42,5.01-9.63,7.52-.31-.28-.61-.57-.92-.85,2.1-2.38,4.02-4.95,6.33-7.09,3.29-3.06,6.92-5.75,10.3-8.7,2.87-2.5,4.31-5.38,2.54-9.35-.31-.7,1.14-2.5,2.13-3.41,15.74-14.62,31.45-29.27,47.34-43.73,25.94-23.6,51.93-47.14,78.05-70.53,6.54-5.85,13.67-11.05,21.48-15.87-1.39,2.19-2.41,4.76-4.22,6.52-12.17,11.81-24.51,23.45-36.78,35.17-.92.88-1.72,1.9-1.88,3.72,2.95-2.28,6.07-4.36,8.81-6.87,7.75-7.1,15.28-14.44,23.06-21.49.84-.77,2.8-.3,4.28-.18,6.65-1.4,8.21-10.82,15.97-10.4-2.03,3.74-3.68,7.44-5.98,10.69-.96,1.36-3.51,1.47-4.98,2.6-3.22,2.49-6.21,5.27-9.29,7.94.15.45.3.9.44,1.35,3.98.41,7.97.82,12.44,1.28-.51,1.45-.89,2.55-1.27,3.64.22.33.43.65.65.98,2.56-1.6,5.11-3.2,7.67-4.8.13.12.26.25.39.37-1.32,1.61-2.64,3.23-3.96,4.84.35.58.71,1.16,1.06,1.74,5.15-2.15,10.31-4.3,15.56-6.48.85,5.43-4.54,8.56-5.72,13.73,1.57-1.09,3.04-2.41,4.75-3.21,1.35-.64,2.99-.84,4.51-.9,2.49-.09,4.39-2.51,4.13-5.47,2.31-2.97,9.79-.08,8.06-7.08,3.3-.81,6.45-1.58,9.6-2.35-.17-.64-.33-1.29-.5-1.93-1.29.42-2.58.83-4.44,1.44,2.16-2.06,3.84-3.66,5.5-5.23,3.52,7.34,5.11-2.42,8.46-1.19-.74,1.29-1.44,2.52-2.78,4.88,4.31-2.61,9.78-2.35,7.78-8.91-.28-.93,1.24-2.41,2.16-4.04.28,3.17.5,5.65.78,8.78,8.39-6.65,16.05-12.73,23.71-18.81.55.5,1.1,1.01,1.66,1.51-1.44,2.45-2.87,4.9-4.31,7.35-.4-.21-.81-.41-1.21-.62,0,1.24-.26,2.56.07,3.71.37,1.29,1.06,2.73,2.07,3.48.42.31,2.03-.99,3.11-1.55,2.87-1.51,5.75-3.01,8.62-4.51.29.43.59.86.88,1.29-2.18,1.98-4.36,3.96-6.54,5.93.37.44.74.87,1.12,1.31,3.36-2.72,6.72-5.44,10.08-8.15,3.78-3.04,7.5-6.16,11.43-9,.5-.36,2.07.77,4.76,1.87-7.41,5.49-13.72,10.16-20.4,15.11,1.08.51,1.83.86,3.67,1.73-1.51.87-2.65,1.51-3.78,2.16.45.44.89.89,1.34,1.33,1.65-1.61,3.33-3.2,4.95-4.85.33-.34.45-.88,1.5-.58,1.61-1.46,3.27-2.87,4.83-4.38,4.22-4.09,8.58-7.95,16.12-10.24-1.21,6.05-2.17,10.88-2.99,14.99,2.17-.15,4.91-.33,9.06-.61-6.62,8.17-12.25,15.11-17.87,22.05.19.21.37.41.56.62,6.88-4.03,13.76-8.06,20.64-12.09.29.3.59.59.88.89-1.25,3.86-2.5,7.73-4.1,12.66,7.02-3.38,12.99-6.25,19.58-9.43-.99,1.43-1.63,2.36-2.27,3.28.34.4.67.8,1.01,1.2,6.28-5.02,12.56-10.04,18.83-15.06.22.27.45.55.67.82-3.44,3.63-6.95,7.2-10.31,10.9-3.15,3.47-6.38,6.92-9.1,10.72-.92,1.29-.39,3.61-.64,7.08,8.55-7.58,16.38-14.52,24.21-21.46.31.23.63.45.94.68-1.04,1.43-1.96,2.97-3.14,4.27-6.83,7.52-13.78,14.93-20.53,22.52-1.12,1.26-1.49,3.2-2.2,4.83,1.9-.15,3.83-.14,5.69-.52.86-.17,1.56-1.1,2.59-1.87.8,2.04,1.49,3.78,1.99,5.06,3.66-.64,7.04-1.23,10.43-1.82.44.35.88.71,1.32,1.06-2.26,3.66-4.53,7.31-6.79,10.97.16.22.32.43.47.65,1.73-1.24,3.46-2.47,5.17-3.7,2.42,3.02,2.34,3.52-.59,6.94-1.68,1.97-3.27,4.02-4.9,6.04l1.12,1.06c1.19-.65,2.37-1.31,3.71-2.04,1.61,2.46-5.19,5.61,2.07,7.03-.24.4-.48.79-.72,1.19-2.17.99-4.57,1.65-6.45,3.03-3.25,2.38-6.53,4.92-9.03,8.01-.81,1,.78,3.94,1.44,6.73-5.08,5.59-10.74,11.81-16.4,18.04.13.24.27.47.4.71,1.42-.59,2.84-1.17,4.25-1.79,6.69-2.93,13.51-5.6,19.99-8.93,3.46-1.78,6.24-4.82,9.47-7.09,2.87-2.03,5.43-4.69,9.46-.9,1.65,1.55,5.47.77,8.81,1.11-.76,1.52-1.45,2.88-2.29,4.56,1.17.45,2.29.89,3.62,1.41-.44.69-.71,1.31-1.15,1.75-6.57,6.61-13.18,13.18-19.76,19.8-1.05,1.06-2.2,2.14-2.89,3.43-1.1,2.05-3.11,4.91-2.42,6.28.82,1.64,4.05,2.08,6.12,2.98-2.89,1.56-6.55,3.53-10.22,5.51.21.69.42,1.37.63,2.06,3.34-.61,6.88-.71,9.96-1.96,4.1-1.67,7.72-4.46,11.75-6.34,2.19-1.02,4.8-1.1,7.2-1.7,1.23-.31,2.49-.66,3.59-1.27,5.53-3.08,11.01-6.25,16.51-9.39.34.39.67.78,1.01,1.16-.86.98-1.64,2.03-2.6,2.91-1.09,1-2.33,1.84-2.96,3.3,4-1.01,7.99-2.02,12.15-3.07.5,1.36,1.01,2.75,1.72,4.69,3.57-2.43,6.76-4.59,9.95-6.76.26.3.51.61.77.91-7.26,6.73-14.53,13.46-21.79,20.19,6.23.98,12,4.04,17.46-1,1.46-1.35,4.71-.77,8.04-1.19-2.31,6.17-10.73,8.54-7.66,15.55-8.79,8.62-17.51,16.95-25.95,25.56-3.39,3.46-6.06,7.62-9.27,11.27-.74.84-2.37.88-4.73,1.67,2.1,2.18,3.99,4.14,5.59,5.79,2.79-2.46,4.76-4.2,6.73-5.93.42.46.83.93,1.25,1.39-2.62,2.42-5.24,4.84-7.68,7.09,1.58,2.36,3.16,4.71,4.97,7.41.07-.05.9-.71,2.01-1.57.67,1.16,1.33,2.3,2.1,3.63,6.5-5.1,12.73-10,18.96-14.89.27.25.55.5.82.76-.44.69-.75,1.55-1.35,2.04-6.19,5-12.65,9.68-18.59,14.95-12.69,11.25-25.15,22.76-37.55,34.33-.81.76-.29,2.95-.44,5.24-1.02-.47-2.14-.98-3.54-1.63-.59.67-1.63,1.4-1.95,2.36-.19.59.72,1.55,1.5,3.03-2.04.99-4.3,2.08-6.86,3.32,1.36,2.92,1.46,5.29-3.5,5.64-2.29.16-5.41.85-5.83,4.89-.19,1.79-2.95,3.42-4.72,4.91-9.4,7.95-19.15,15.51-28.24,23.8-16.44,14.99-35.01,27.1-52.89,40.14-2.82,2.05-6.43,2.99-9.61,4.58-2.7,1.35-5.92,2.58-3.83,5.96-9.45,4.39-18.78,8.72-29.54,13.72,7.53-7.81,14.07-14.6,20.62-21.38-.26-.35-.52-.7-.78-1.05-8.94,5.84-17.87,11.68-26.81,17.52-.23-.29-.46-.59-.69-.88,1.17-1.66,2.34-3.32,3.51-4.98-.27-.41-.55-.82-.82-1.22-2.68,1.73-5.23,3.7-8.07,5.11-2.57,1.28-5.42,2.01-8.17,2.9-3.85,1.24-7.86,2.1-11.56,3.68-4.93,2.11-9.63,4.77-14.44,7.16-2.02,1.01-3.99,2.27-6.14,2.85-7.71,2.1-15.49,3.97-22.44,5.72-1.6-3.21-2.6-5.22-3.75-7.52-3.42,1.69-6.68,3.3-11.01,5.45,1.57-2.75,2.46-4.29,4.13-7.22-5.58,1.03-9.99,1.85-14.29,2.65.11-.21.57-1.08,1.03-1.95-8.01-3.76-8.04-3.91-1.9-17.57-2.95,1.04-5.15,1.67-7.22,2.58-6.7,2.94-13.34,5.99-20.03,8.96-.88.39-2.3,1.12-2.72.77-5.07-4.22-9.2.85-14.17,1.08-2.36-3.03-1.34-6.21,1.29-8.45,8.12-6.89,13.97-16.25,24.02-21.13,3.73-1.81,6.43-5.73,9.6-8.68-.26-.55-.52-1.1-.78-1.65ZM326.06,71.27c-4.69,3.59-8.91,6.82-13.13,10.06.25.31.5.63.75.94,1.51-.99,3.02-1.99,4.52-2.98.27.37.53.75.8,1.12-2.14,1.66-4.29,3.32-6.43,4.99,6.19-.52,13.34-8.23,13.49-14.12ZM42.62,284.25c-.34-.55-.67-1.09-1.01-1.64-3.66,2.41-7.32,4.83-10.99,7.24.31.51.61,1.02.92,1.53,4.34-1.27,7.22-5.03,11.08-7.14Z"/>
    <path class="cls-1" d="M255.42,59.56c6.25-5.53,11.68-10.34,17.11-15.14-.79,5.42-12.32,15.26-17.11,15.14Z"/>
    <path class="cls-1" d="M326.06,71.27c-.15,5.89-7.3,13.6-13.49,14.12,2.14-1.66,4.29-3.32,6.43-4.99-.27-.37-.53-.75-.8-1.12-1.51.99-3.02,1.99-4.52,2.98-.25-.31-.5-.63-.75-.94,4.22-3.23,8.44-6.46,13.13-10.06Z"/>
    <path class="cls-1" d="M42.62,284.25c-3.85,2.1-6.74,5.87-11.08,7.14-.31-.51-.61-1.02-.92-1.53,3.66-2.41,7.32-4.83,10.99-7.24.34.55.67,1.09,1.01,1.64Z"/>
  </g>
  <text class="cls-2" transform="translate(106.03 235.07)"><tspan x="0" y="0">COOR</tspan><tspan class="cls-3" x="224.15" y="0">D</tspan><tspan x="275.97" y="0">.</tspan><tspan x="27.71" y="56.12">GERAL</tspan></text>
</svg>