<?xml version="1.0" encoding="UTF-8"?>
<svg id="Camada_4" data-name="Camada 4" xmlns="http://www.w3.org/2000/svg" viewBox="0 0 500 500">
  <defs>
    <style>
      .cls-1 {
        fill: #000;
      }

      .cls-1, .cls-2 {
        stroke-width: 0px;
      }

      .cls-3 {
        fill: #f9fafb;
        font-family: StretchProRegular, 'Stretch Pro';
        opacity: .97;
      }

      .cls-4 {
        font-size: 31px;
      }

      .cls-5 {
        font-size: 46.77px;
      }

      .cls-2 {
        fill: #fff;
      }

      .cls-6 {
        letter-spacing: -.03em;
      }
    </style>
  </defs>
  <g>
    <path class="cls-1" d="M166.63,406.86c-.57-1.26-1.15-2.52-1.95-4.29-3.2,1.84-6.05,3.78-9.16,5.13-1.44.62-3.38.09-5.09.08.84-1.5,1.52-3.11,2.57-4.44.64-.82,1.84-1.19,2.78-1.77,10.72-6.61,21.45-13.21,32.15-19.85.97-.6,1.75-1.51,2.1-3.17-4.77,1.83-9.48,3.85-14.33,5.42-3.75,1.21-6.22,4.86-11.96,1.51-6.78-3.97-7.68-2.43-15.56,4.46.1,2.66,5.27,6.04-1.1,7.79l.04.05c-.59-2.11-1.19-4.22-2.1-7.45-1.61.44-4.31.77-6.63,1.88-4.72,2.27-8.74,6.37-14.85,4.13-1.28-.47-3.32.69-4.85,1.43-6.42,3.09-12.72,6.47-19.23,9.37-1.74.77-4.09.14-6.15.24-3.74.17-7.47.4-11.2.61-1.82.1-3.97,1.69-4.99-1.58-.15-.48-3.2-.36-4.81-.02-2.98.62-5.89,1.59-8.84,2.42-.19-.4-.38-.79-.57-1.19,1.19-.85,2.31-1.82,3.58-2.52,4.3-2.38,8.66-4.65,12.98-6.99.97-.53,2.65-1.17,2.67-1.8.12-5.13,5.03-5.03,7.69-7.31,1.23-1.05,4.14-.71,2.77-3.8-.07-.17,2.11-1.64,3.38-2.04,4.8-1.5,8.02-4.58,10.74-8.78,1.73-2.67,4.53-4.84,7.24-6.64,7.23-4.8,14.67-9.29,22.03-13.9-.13-.45-.25-.9-.38-1.35-1.41.29-2.88.41-4.22.89-3.56,1.27-7.13,2.56-10.59,4.09-10.26,4.55-20.44,9.27-30.7,13.81-3.53,1.56-6.97,4.76-11.02.29-.9-1-3.86-.15-7.11-.15,4.8-4.44,8.76-8.12,12.75-11.79.81-.74,2.44-1.46,2.41-2.11-.33-5.78,4.71-6.55,8.03-8.76,7.39-4.92,14.94-9.59,22.38-14.42,1.25-.81,2.31-1.92,3.45-2.89-.21-.34-.42-.69-.64-1.03-4.55,2.39-9.02,4.98-13.69,7.11-4.44,2.02-9.09,3.57-13.67,5.28-3.83,1.43-7.69,2.79-11.53,4.2-2.08.76-4.08,1.86-6.22,2.26-1.74.33-3.63-.15-5.45-.26.61-1.63,1.18-3.27,1.84-4.88.23-.57.66-1.05,1.41-2.22-3.8.83-7.5,2.83-9.54-1.92-.17-.41-2.63.11-4.02.3-1.91.26-3.81.63-5.89.24,12.34-8.05,24.67-16.09,37.01-24.14-.21-.38-.42-.77-.64-1.15-3.83,1.42-7.66,2.85-11.49,4.27-.22-.4-.43-.79-.65-1.19,5.61-8.98,17.13-11.02,23.66-18.92-.17-.41-.33-.82-.5-1.24-1.93.63-3.99,1-5.76,1.93-4.77,2.51-9.4,5.28-14.1,7.92-5.47,3.08-10.96,5.95-16.57-.41.69-.95,1.53-2.12,1.81-2.51-5.28.24-10.96.49-16.65.75-.31-.64-.61-1.28-.92-1.91,11.41-8.98,22.81-17.97,34.22-26.95-.07-.58-.15-1.17-.22-1.75-1.66,0-3.53-.5-4.92.11-2.74,1.19-5.15,3.09-7.8,4.51-2.28,1.22-3.92,3.26-7.48.85-1.76-1.19-6.61,1.63-9.77,3.21-4.81,2.4-9.34,5.36-14.05,7.96-1.3.72-2.82,1.02-4.24,1.51-.27-.43-.53-.85-.8-1.28,2.62-2.02,5.14-4.19,7.88-6.03,4.29-2.88,9.4-4.7,11.44-10.22.32-.85,2.39-1.04,3.63-1.57,2.07-.89,4.12-1.82,6.17-2.74-.14-.51-.28-1.02-.42-1.53-1.4-.47-2.8-.95-5.4-1.83,2.79-2.27,4.94-4.39,7.42-6,12.1-7.85,24.35-15.46,36.37-23.42,2.24-1.48,3.64-4.23,5.42-6.4-.32-.37-.63-.73-.95-1.1h-4.73v-4.4c-8.55-1.97-13.52,7.57-22.06,6.17,3.54-2.5,7.08-5,11.66-8.23-10.23-2.82-15.82,5.51-23.38,6.69-.31-.45-.62-.9-.93-1.35,3.03-2.53,6.06-5.07,9.09-7.6-.16-.46-.31-.92-.47-1.38-10.75,1.77-20.87,5.88-31.46,9.94-.16-1.27-.3-2.35-.48-3.74-3.2,1.51-6.09,2.88-8.98,4.25-.36-.34-.72-.69-1.08-1.03.96-1.37,1.73-2.93,2.91-4.06,2.41-2.29,5.1-4.29,7.58-6.51,7.61-6.8,15.19-13.64,22.75-20.49.58-.52,1.28-1.16,1.44-1.85,2.78-12.18,13.83-15.59,22.72-20.98,6.81-4.14,14.24-7.35,21.6-10.48,15.13-6.44,30.39-12.57,45.6-18.8,2.61-1.07,5.28-2,7.92-3l1.01,1.59c-1.6.9-3.21,1.8-5.25,2.94,7.21,3.07,15.18.15,17.75-5.83,1.39-3.23,2.94-5.14,6.8-3.56.96.39,2.47-.08,3.56-.56,6.79-3.01,13.78-5.7,20.25-9.29,21.31-11.81,42.48-23.88,63.59-36.04,6.78-3.91,13.23-8.4,19.72-13.26-2.14.58-4.38.91-6.4,1.78-11.21,4.8-22.34,9.78-33.56,14.57-2.24.96-4.75,1.3-7.49,1.05,5.89-5.52,11.05-11.47,19.3-13.58,4.62-1.18,8.85-3.99,13.13-6.3,6.26-3.38,12.43-6.94,18.6-10.49,2.32-1.33,4.4-3.12,6.81-4.24,4.39-2.05,8.95-3.77,14.13-4.75-1.26,1.76-2.53,3.53-4.29,5.98,3.64-.58,6.52-1.04,10.71-1.71-1.2,2.24-1.81,2.97-1.95,3.78-.15.81.16,1.71.27,2.57.85-.13,1.81-.05,2.53-.42,2.63-1.34,5.18-2.83,8.16-4.49,2.03,4.75,3.78,8.87,5.74,13.47,1.89-1.35,3.23-2.31,5.04-3.6,1.05,2.56,2.01,4.92,3.09,7.57-2.59,1.57-5.13,2.96-7.46,4.63-.64.46-1.16,1.96-.87,2.6.3.68,1.81,1.44,2.47,1.21,1.93-.64,3.65-1.92,5.58-2.62.98-.36,2.22,0,3.34.03-.49,1.2-.65,3.07-1.52,3.51-9.91,4.93-19.72,10.18-30.03,14.12-3.68,1.41-7.5,1.6-10.45,4.9-.8.89-3.91-.28-6.16-.52-4.51,7.98-11.13,11.07-17.87,7.62-1.18,4.3-3.92,5.68-8.37,4.85-1.23-.23-2.94,2.02-4.4,3.16-1.26.99-2.47,2.03-4.59,3.77-.26-3.16-.42-5.09-.58-7.02-2.41,9.46-11.27,11.63-17.94,16.27-.33-.28-.66-.55-.98-.83,2.02-2.34,3.88-4.85,6.11-6.98,2.34-2.23,5.02-4.1,7.26-6.73-7.15-1.64-10.78,6.67-17.83,5.91-.34,1.66-1.34,3.48-.82,4.6,2.15,4.66-.56,6.29-3.98,8.41-6.2,3.84-12.11,8.16-17.98,12.49-1.76,1.3-2.98,3.32-4.45,5.01.27.36.55.71.82,1.07,14.58-6.02,29.16-12.04,43.74-18.06.63.84,1.26,1.68,1.89,2.52-2.45,1.45-4.91,2.89-7.36,4.34.29.46.57.92.86,1.38,6.38-.74,12.81-1.18,19.09-2.43,1.82-.36,3.57-2.8,4.68-4.69,1.67-2.86,2.82-5.74,7.09-4.16,1.01.37,2.84.1,3.57-.62,3.7-3.6,7.07-7.53,10.75-11.14,1.22-1.19,3.07-2.58,4.55-2.49,3.21.2,5.2-.41,7.7-2.94,3.95-3.99,9.01-6.94,13.85-9.94,1.58-.98,3.92-.71,5.91-1.02h0c-.17,1.64-.33,3.3-.55,5.53,3.68-1.36,6.62-2.44,9.55-3.52.31.53.62,1.06.93,1.59-3.69,2.97-7.38,5.94-11.41,9.17.82.66,1.59,1.27,2.6,2.08-.91,1.44-1.83,2.91-2.87,4.57,9.89.83,15.35-7.12,22.79-10.56,3.92,6.4,3.98,6.52-2.62,9.97-5.01,2.62-10.21,4.89-16.23,7.75,4.84,2.8,4.59,2.51,7.03.38,2.04-1.78,4.65-3.08,7.2-4.1,8.75-3.46,17.59-6.7,26.4-10.03,1.14-.43,2.29-.85,3.66-1.36,2.28,5.36-1.78,6.32-4.68,8.21-3.02,1.96-5.8,4.3-8.68,6.47.32.53.65,1.06.97,1.59,2.16-.61,4.34-1.19,6.49-1.83,2.25-.67,4.79-2.16,4.69,2.25,1.16-.22,1.94-.55,2.69-.48,1.41.14,3.8.2,4,.85.44,1.42,0,3.26-.54,4.77-.33.95-1.81,1.48-2.17,2.43-.44,1.14-.73,2.82-.18,3.71.57.92,2.54,1.92,3.36,1.58,4.6-1.92,9.02-4.28,13.54-6.4,1.04-.49,2.23-.66,3.37-.99-.22,2.68-.02,4.68-.65,6.38-.38,1.03-1.93,1.92-3.14,2.29-5.12,1.59-10.31,2.97-15.08,5.39,2.73.57,5.47,1.15,8.2,1.72.19.67.39,1.35.58,2.02-3.93,2.66-7.85,5.33-11.78,7.99.16.33.33.66.49.99,2.32-1.07,4.67-2.05,6.93-3.22,2.51-1.29,3.04-.02,3.06,2.12l.13-.14c-5.12,1.98-9.43,4.95-12.07,9.95,2.49,4.9,9.2,6.28,13.92,2.18-2.04.13-3.41.21-5.12.32-1.24-4.41,1.94-5.13,4.81-5.46,4.47-.51,9.11-.01,13.46-.93,3.53-.74,6.76-2.93,10.66-4.73.34,1.25.73,2.64,1.12,4.06-4.52,1.58-8.68,2.96-12.78,4.49-2.61.98-4.47,6.47-2.77,8.5.59.71,2.25.9,3.33.73,2.02-.3,4-1.52,5.95-1.42,1.5.08,2.93,1.6,4.39,2.47-1.15,1.33-2.07,3.07-3.51,3.84-1.01.54-2.77-.1-4.12-.47-5.87-1.61-9.52.7-10.86,6.74-.45,2.04-1.41,3.97-2.51,6.97,2.25-1.18,3.67-1.92,5.08-2.67.42-.22.79-.66,1.22-.72,5.21-.62,11.11.12,13.01-6.84.02-.07.86.09,1.27.13.15,2.78.3,5.5.51,9.3,2.79-5.5,10.32,1.36,10.95-7.06,2.26,1.88,3.86,3.21,6.76,5.61-5.5,1.36-9.68,2.37-13.84,3.46-1.18.31-2.59.56-3.4,1.35-3.58,3.46-7.12,7-10.38,10.76-.95,1.1-.93,3.05-.39,5.35,1.61-.92,3.21-1.84,5.69-3.26-.23,4.73-.31,9.4-.76,14.04-.21,2.19-2.56,4.79.8,6.07,2.54.97,5.27.83,6.74-2.51,1.36-3.07,3.9-3.77,7.02-2.62-.24,1.79-.45,3.37-.66,4.96.67.35,1.34.71,2.01,1.06-.31-8.21,7.19-6.33,10.68-9.66.38-.36,1.87-.28,2.01,0,.33.68.43,1.71.15,2.4-3.38,8.27-3.59,8.37-13.34,7.69-1.51,3.13-3.03,6.26-4.47,9.24-2.53-2.52-12.77-.39-16.64,3.64.68,1.28,2.01,2.66,1.72,3.47-.56,1.61-1.79,3.84-3.14,4.15-5.17,1.2-8.88,4.37-12.98,7.42-3.5,2.6-8.17,4-12.53,4.96-2.48.55-5.73-.24-8.02-1.52-4.49-2.52-5.68,1.22-8.59,3.65,1.63.78,3.02,1.12,3.94,1.97.85.78,1.78,2.17,1.66,3.17-.54,4.63.26,5.56,4.67,3.57,7.79-3.52,15.28-7.69,23.07-11.2,5.43-2.45,11.12-4.39,16.8-6.18,1.01-.32,2.59,1.15,3.91,1.8-.78,1.59-1.22,3.55-2.44,4.69-1.43,1.33-3.52,1.95-5.39,2.9-1.2-1.27-2.36-2.49-4.24-4.47-1.84,7.16-9.8,5.47-13.29,11.42-2.68,4.57-9.3,6.82-14.16,10.11.34.68.68,1.35,1.01,2.03,6.58-2.42,13.16-4.84,19.92-7.32-.22,1.74-.44,3.45-.7,5.49-7.35.9-7.75,7.97-10.08,12.92-2.07,4.42-5.28,6.19-9.13,8.14-3.46,1.75-6.47,4.38-10.4,7.13,3.47,1.38,5.38,2.15,7.46,2.97,2.5-.39-1.89-8.38,4.78-4.69-5.43,12.14-10.06,16.02-16.54,13.7-.12,1.1-.23,2.16-.39,3.68-2.04-1.83-3.82-3.43-5.24-4.71,3.23-2.94,6.33-5.76,9.43-8.59-.2-.51-.4-1.02-.6-1.53-2.75.86-5.66,1.4-8.21,2.67-2.52,1.26-4.62,4.64-6.97,4.7-10.69.28-15.35,11.03-24.63,13.47-.31.08-.46.73-.83,1.36,2.46.35,6.17-2.56,6.44,1.08-6.21,3.76-11.77,7.13-17.34,10.48-.8.48-1.68,1.3-2.48,1.26-5.12-.25-8.32,3.47-12.36,5.51-1.9.96-4.36.8-7.19,1.24.37-2.3.57-3.58.81-5.12-.85-.12-1.97-.58-2.25-.27-1.6,1.78-3,3.73-5.1,6.43,3.35.98,5.34,1.56,8.77,2.56-11.2,5.17-21.21,9.78-31.04,14.32-1.54-1.73-2.87-4.29-4.93-5.2-1.65-.73-4.3.25-6.31,1-12.64,4.71-25.75,6.87-39.71,7.64,1.12-1.81,1.99-3.22,3.54-5.71-8,2.27-15.18,3.78-21.93,6.38-6.47,2.49-12.56,6.01-18.67,9.35-1.53.84-2.35,2.87-3.72,4.11-1.1,1-2.54,1.62-3.82,2.41,0,0,.08.09.08.09ZM383.45,225c.21.43.41.86.62,1.29,3.61.8,7.19,1.8,10.83,2.29,1.07.14,2.66-.9,3.45-1.86,1.87-2.27,3.59-4.71,4.97-7.29.66-1.23.43-2.95.6-4.45-1.39.5-2.96.73-4.12,1.55-2.13,1.51-3.77,3.86-6.04,4.97-3.23,1.58-6.86,2.37-10.31,3.5ZM377.2,197.56c2.81,3.7,5.61,4.3,8.63,2.27,3-2,5.84-4.28,8.5-6.71,3.03-2.76,4.83-6.15,3.52-10.77-2.54,2.11-5.06,4.38-6.08,7.2-1.41,3.9-3.64,5.43-7.59,5.72-2.18.16-4.29,1.36-6.98,2.28ZM394.31,210.45c-6.66-4.82-12.75-2.09-17.42,7.24,6.19-2.57,11.42-4.74,17.42-7.24Z"/>
    <path class="cls-1" d="M219,114.39c-12.01,6.58-22.97,15.22-36.59,18.61-.47-.64-.95-1.28-1.42-1.93,2.12-2.02,3.91-4.77,6.43-5.93,9.44-4.34,19.11-8.17,28.71-12.16.65-.27,1.44-.2,2.16-.29.24.56.48,1.13.71,1.69Z"/>
    <path class="cls-1" d="M342.09,107.59c2.43-5.65,6.77-8.84,12.64-10.5,4.8-1.36,9.42-3.33,14.45-5.15,1.28,4.76,5.69.54,9.59,1.93-3.9,3.7-8.22,5.04-12.31,4.87-6.57-.27-11.78.62-15.92,6.56-1.27,1.82-5.64,1.48-8.6,2.13,0,0,.14.15.14.15Z"/>
    <path class="cls-1" d="M422.32,292.58c3.35-8.01,9.08-4.07,12.48-3.35,2.79-2.27,4.52-3.85,6.48-5.05.23-.14,2.44,1.75,2.53,2.81.28,3.36-2.21,4.47-5.04,5.16-5.43,1.32-10.81,3.61-16.45.43Z"/>
    <path class="cls-1" d="M135.47,421.73c7.98-4.52,15.89-9.17,24-13.45,2.06-1.09,4.76-.98,7.16-1.42,0,0-.08-.09-.08-.09-.22,1.07-.44,2.14-.37,1.82-4.99,2.13-9.19,3.59-13.05,5.68-3.73,2.02-7.07,4.76-10.67,7.05-2.27,1.45-4.7,2.67-7.05,3.99l-.85-.93c.34-.91.68-1.82,1.02-2.73,0,0-.11.09-.11.09Z"/>
    <path class="cls-1" d="M436.58,219.78c-1.88,1.48-3.7,2.92-5.36,4.23.19,1.27.5,2.54.47,3.79,0,.26-1.8.84-1.94.66-.79-1.06-1.53-2.24-1.91-3.5-.97-3.22-1.84-6.48-2.54-9.76-.18-.86.39-1.89.61-2.81,3.68,2.55,6.97,4.83,10.68,7.39Z"/>
    <path class="cls-1" d="M147.09,397.72c-1.69,2.48-3.38,4.96-5.83,8.56-.73-11.41-6.67-3.71-10.34-4.29,3.09-5.21,6.26-6.02,16.2-4.23,0,0-.03-.04-.03-.04Z"/>
    <path class="cls-1" d="M135.58,421.64c-4.06,2.08-8.1,4.19-12.18,6.23-1.52.76-3.12,1.36-4.68,2.04-.31-.3-.62-.6-.93-.9.72-1.01,1.24-2.36,2.21-2.98,2.93-1.87,6.2-3.23,9.04-5.22,2.67-1.86,4.56-1.39,6.41.93.02-.02.13-.1.13-.1Z"/>
    <path class="cls-1" d="M415.75,269.73c4.63-3.22,6-2.86,8.17,1.15.43.79,1.91.99,2.39,1.78.46.75.24,1.92.31,2.9-.86,0-1.95.31-2.52-.1-1.21-.86-2.02-2.29-3.24-3.15-1.38-.97-3.03-1.56-5.12-2.58Z"/>
    <path class="cls-1" d="M389.86,171.13c3.94-.8,7.87-1.6,11.89-2.41-1.32,4.59-7.68,7.47-11.19,5.07-.56-.39-.41-1.82-.58-2.78,0,0-.12.13-.12.13Z"/>
    <path class="cls-1" d="M419.57,230.27c-.21,4.09-1.26,6.7-4.99,6.93-.73.05-2.26-1.46-2.21-2.18.25-4.16,3.73-3.85,7.2-4.76Z"/>
    <path class="cls-1" d="M383.16,341.19c-1.35,2.13-2.71,4.25-4.73,7.43-1.19-2.4-3.05-4.97-2.61-5.46,1.48-1.62,3.78-2.5,5.76-3.67.53.56,1.05,1.13,1.58,1.69Z"/>
    <path class="cls-1" d="M373.21,114.39c-.58,7.42-2.36,8.46-7.9,5.38,2.83-1.92,5.36-3.65,7.9-5.38Z"/>
    <path class="cls-1" d="M435.69,280.26c-2.02,1.59-3.89,3.45-6.12,4.62-.85.44-2.54-.74-3.85-1.18.91-.9,1.66-2.18,2.75-2.62,1.99-.8,4.17-1.1,6.27-1.61.32.26.63.53.95.79Z"/>
    <path class="cls-1" d="M447.82,249c-2.8,4.36-4.96,3.25-6.75,1.64-.61-.55-.3-2.13-.42-3.24,2.17.49,4.34.97,7.17,1.6Z"/>
    <path class="cls-1" d="M331.91,111.81c3.39-1.41,6.78-2.81,10.18-4.22,0,0-.14-.15-.14-.15-2.19,4.12-5.29,6.14-10.04,4.36,0,0,0,0,0,0Z"/>
    <path class="cls-1" d="M360.46,113.51c-3.25,1.24-6.16,2.36-10.01,3.83,2.98-5.34,5.63-6.2,10.01-3.83Z"/>
    <path class="cls-1" d="M234.66,104.61c-4.43,4.96-6.23,5.32-9.02,2.12,3.16-.74,6.09-1.43,9.02-2.12Z"/>
    <path class="cls-1" d="M452.43,255.5c2.87.76,5.01.81,6.33,1.88.69.55-.06,2.89-.16,4.42-.4.09-.8.18-1.2.27-1.38-1.82-2.76-3.65-4.98-6.57Z"/>
    <path class="cls-2" d="M383.45,225c3.46-1.13,7.08-1.91,10.31-3.5,2.28-1.12,3.92-3.46,6.04-4.97,1.16-.82,2.73-1.06,4.12-1.55-.17,1.5.07,3.21-.6,4.45-1.39,2.58-3.11,5.02-4.97,7.29-.79.96-2.38,2-3.45,1.86-3.65-.49-7.23-1.48-10.83-2.29-.21-.43-.41-.86-.62-1.29Z"/>
    <path class="cls-2" d="M377.2,197.56c2.69-.92,4.8-2.11,6.98-2.28,3.95-.29,6.18-1.82,7.59-5.72,1.02-2.82,3.54-5.1,6.08-7.2,1.32,4.61-.49,8-3.52,10.77-2.66,2.43-5.51,4.71-8.5,6.71-3.03,2.02-5.82,1.42-8.63-2.27Z"/>
    <path class="cls-2" d="M394.31,210.45c-6,2.49-11.23,4.67-17.42,7.24,4.67-9.33,10.76-12.06,17.42-7.24Z"/>
  </g>
  <text class="cls-3" transform="translate(91.56 242.04)"><tspan class="cls-5"><tspan x="0" y="0">COOR</tspan><tspan class="cls-6" x="224.15" y="0">D</tspan><tspan x="275.97" y="0">.</tspan></tspan><tspan class="cls-4"><tspan x="56.89" y="37.2">SOCIAL</tspan></tspan></text>
</svg>