<?xml version="1.0" encoding="UTF-8"?>
<svg id="Camada_3" data-name="Camada 3" xmlns="http://www.w3.org/2000/svg" viewBox="0 0 500 500">
  <defs>
    <style>
      .cls-1 {
        fill: #f9fafb;
      }

      .cls-1, .cls-2 {
        font-family: StretchProRegular, 'Stretch Pro';
      }

      .cls-3 {
        fill: #ed6b30;
        stroke-width: 0px;
      }

      .cls-2 {
        fill: #fff;
        font-size: 19.41px;
      }

      .cls-4 {
        font-size: 31px;
      }

      .cls-5 {
        font-size: 46.77px;
      }

      .cls-6 {
        letter-spacing: -.03em;
      }
    </style>
  </defs>
  <g>
    <path class="cls-3" d="M460,373.66v4.47c-1.55.55-3.22,1.78-4.61,1.52-4.86-.91-9.57-2.68-14.44-3.46-2.87-.46-5.98.16-8.9.71-.63.12-.93,2.02-1.6,3.61-2.65-.18-5.72-.38-8.78-.58l-.07.66c.97.47,1.93.94,3.62,1.77-5.26.92-9.68,1.69-13.58,2.38,3.41,3.82,8.64,3.78,13.57,4.87,5.26,1.17,10.35,3.08,15.21,4.57-1.73,5.64-5.46,3.14-9.07,2.58-4.09-.63-8.31-.83-12.44-.6-4.93.27-9.62,2.93-14.81,1.32-2.47-.77-5.11-1.27-7.68-1.29-2.16-.02-4.33.83-7.1,1.42-4.77-4.61-7.12-3.82-17.05-2.11,3.65,1.41,7.05,3.14,10.66,4.03,7.32,1.79,15.12,1.1,22.21,4.24.99.44,2.18.43,3.27.61,8.74,1.48,17.48,2.96,26.77,4.53-7.03,2.45-13.63,3.52-21.33,1.76,1.43-.49,2.08-.71,2.73-.93-14.48-6.03-29.38-9.47-45.22-8.33,1.08,1.53,2.42,2.28,3.77,2.99,6.17,3.26,12.19,6.9,18.58,9.65,5.1,2.19,11.03,1.78,16.2,4.2,1.16.54,2.71.21,3.91.71,3.36,1.39,6.6,3.08,9.95,4.52,2.94,1.27,6.11,2.08,8.86,3.65,1.4.8,2.12,2.8,3.15,4.26-1.54.83-3,1.93-4.64,2.38-.85.23-2.13-.53-3.02-1.13-.86-.59-1.46-1.55-2.18-2.35l-.7.63c.47.7.94,1.4,1.75,2.59-8.57-4.25-17.54-5.12-26.09-7.67,1.46,1.62,4.5,3.04,4.38,4.08-.47,3.93,2.54,3.17,4.32,3.9,2.75,1.13,5.61,1.98,8.43,2.95-.11.32-.22.64-.33.97-4.72-1.05-9.43-2.1-14.15-3.16l-.24.96c1.33.77,2.66,1.54,4,2.31-.19.4-.38.8-.58,1.2-4.76-1.98-9.52-3.97-14.28-5.95l-.26.61c1.6,1.01,3.19,2.03,5.43,3.45-3.62,0-6.29-.06-8.96.01-5.99.17-11.75-.37-17.57-2.35-6.71-2.28-13.8-3.53-20.76-5.02-6.63-1.41-12.87-4.08-19.38-5.89-2.68-.74-5.37-2.07-8.33-2.66-1.64-.32-4.3.19-4.86-2.69-.06-.3-1.47-.43-2.26-.46-6.77-.25-13.56-.25-20.32-.74-5.41-.39-7.26.82-8.15,7.29,17.48,1.52,34.91,3.04,52.34,4.55-.21.38-.42.75-.63,1.13.68.97,1.2,2.56,2.07,2.78,3.07.78,6.27,1.07,9.41,1.61,1.21.21,2.79.22,3.52.98,2.98,3.1,7.94.77,10.74,4.12.08.1.46-.06.7-.08,1.51-.07,3.1-.49,4.52-.15,11.74,2.76,23.47,5.61,35.17,8.55,2.8.7,5.49,1.85,8.23,2.79-.11.35-.22.7-.33,1.06-3.28-.96-6.56-1.92-9.84-2.88-.1.31-.2.62-.29.92,2.38.86,4.75,1.71,7.13,2.57-.12.44-.23.88-.35,1.32-11.1-2.94-22.2-5.87-33.3-8.81-.08.3-.17.6-.25.9,7.09,2.28,14.18,4.57,21.26,6.85-.04.42-.09.83-.13,1.25-1.29.06-2.66.42-3.87.13-15.54-3.71-31.07-7.48-46.58-11.33-2-.5-3.83-1.74-5.84-2.16-4.87-1.01-9.8-1.73-14.7-2.56.03-.19.05-.39.08-.58h5.78c-8.12-2.28-16.27-4.28-24.51-5.8-4.42-.82-9.08-.38-13.46-1.3-5.81-1.22-11.47-2.09-17.27-.2-.77.25-1.72.02-2.58-.05-7.35-.67-14.7-1.39-22.06-2.02-2.83-.24-5.69-.3-8.67-.45-1.1-.38-2.4-1.12-3.75-1.25-3.58-.35-7.18-.47-10.77-.61-7.97-.3-15.95-1.88-23.9.49-1.34.4-3.51.54-4.32-.23-4.23-4.02-9.34-1.88-14.05-2.36-.29-.03-.7,1.05-1.11,1.7-14.6-1.86-32.53-1.88-37.44.31,2.43.3,4.86.27,7.28.31,1.72.03,3.46,0,5.16.24,7.89,1.17,15.73,2.9,23.66,3.54,7.63.62,15.36.14,23.04.15,4.43,0,8.67-1.93,13.21,1.63,3.03,2.38,7.91,2.86,12.05,3.25,11.04,1.06,22.13,1.62,33.19,2.37.02-.3.05-.6.07-.91-14.47-1.83-28.94-3.66-43.53-5.51,3.7-.82,7.13-1.66,10.59-2.31.92-.17,2.76.1,2.79.34.49,3.97,3.19,1.7,4.79,1.59,2.37-.17,4.7-.95,7.05-1.47l.19,1.05c-1.35.42-2.69.85-4.04,1.27.02.16.04.31.06.47,22.34,2.34,44.67,4.68,66.99,7.02-2.4.57-4.84,1.72-7.23,1.62-16-.66-32-1.55-47.99-2.45-13.73-.77-27.45-2.03-41.19-2.41-24.67-.68-49.36-.85-74.03-1.25-.72-.01-1.43-.18-2.14-.27.03-.38.05-.76.08-1.14h52.73c.02-.54.03-1.08.05-1.62-5.97,2.16-11.31-1.37-17.4-.78-7.58.74-15.35-.57-23.04-.94-2.73-.13-6.19-1.14-8.03.12-2.77,1.9-5.08,1.74-7.89,1.25-2.83-.49-5.72-1.16-8.56-1.02-2.61.13-5.16,1.74-7.76,1.79-10.34.18-20.69.06-31.04-.12-.87-.02-1.72-1.32-2.58-2.02.13-.19.26-.38.4-.57-1.09-.16-2.17-.33-3.63-.55,7.12-2.51,13.72-4.84,19.64-6.93h-15.73c-.02-.26-.05-.52-.07-.78,4.88-.65,9.76-1.3,14.64-1.95-.02-.58-.04-1.15-.06-1.73-3.71-.12-7.41-.35-11.12-.35-6.38,0-12.93,1.73-18.83-2.35,1.07-1.45,2.27-3.08,3.67-4.99-2.09-.48-3.67-.83-6.19-1.41,5.84-2.4,10.73-4.4,15.69-6.44-2.71-3.2-5.86-3.61-9.32-3.24-2.78.3-5.62.74-8.37.49-3.57-.32-7.09-1.26-11.61-2.12,2.23-1.45,3.84-2.5,5.46-3.54-.07-.21-.15-.43-.22-.64h-4.9c-.05-.38-.1-.77-.15-1.15,9.75-2.27,19.51-4.54,28.93-6.73-4.86-.61-10.23-1.29-15.59-1.97.04-.11.09-.21.13-.32,6.62-.47,13.24-.95,21.14-1.51-3.25-1.93-5.79-3.43-8.33-4.94.44-.31.89-.61,1.33-.92-6.78-1.03-13.55-2.05-20.33-3.08.03-.18.06-.36.09-.54,2.85-.26,5.7-.53,8.43-.78.31-1.38.27-3.14.81-3.34,4.21-1.58,2.81-4.23,1.93-7.21-1.22-4.14.82-6.24,4.8-5.58.86.14,1.84-.49,2.73-.43,1.12.08,2.35.28,3.27.85,1.12.7,5.96.87,6.83-.12,1.15-1.3,2.26-2.63,3.59-4.18-.45-.27-1.08-.76-1.8-1.05-.7-.28-1.49-.35-2.25-.51.55-.68.98-1.56,1.68-2.01,1.65-1.08,3.44-1.96,5.16-2.91-.06.37-.16.93-.39,2.29,2.6-1.42,4.6-2.52,6.59-3.61-.08-.32-.17-.65-.25-.97-2.36-.11-4.73-.22-7.09-.34.02-.14.04-.28.05-.42,3.83-.61,7.66-1.22,10.87-1.73-.59-1.72-1.05-3.08-1.83-5.36-8.06.8-16.72,1.66-25.38,2.52-.11-.31-.22-.61-.33-.92,1.21-1.12,2.27-2.94,3.66-3.23,4.3-.9,8.83-.76,12.52-3.79,1.51-1.25,3.28-2.19,5.34-3.54.24.05,1.22.24,2.36.46-.13-.67-.1-.98-.24-1.12-.24-.25-.58-.56-.89-.57-6.92-.25-13.84-1.34-20.74.31-1.23.29-2.56.21-3.84.21-.07,0-.14-.85-.21-1.31,1.37-.1,2.78-.44,4.11-.24,3.11.47,3.24.5,4.06-2.2-1.35-.14-2.71-.28-4.08-.42-.03-.31-.07-.63-.1-.94,1.13-.65,2.25-1.3,3.61-2.09-4.39-2.3-7.58.67-10.69,2-2.75,1.18-4.76.98-7.2,0,.5-2.45,1.33-3.65,4.06-3.08,1.88.39,4.06.1,5.94-.45,3-.87,5.86-2.25,8.8-3.32,1-.36,2.1-.46,3.15-.67-.08-.41-.16-.82-.25-1.23-6.36.95-12.71,1.92-19.08,2.84-.92.13-2.01.36-2.78,0-1.44-.66-2.7-1.72-4.28-2.78.35-2.61,4.56-7.48,6.18-6.36,3.49,2.41,5.36-.94,8.08-.82-.07-.53-.13-1.06-.2-1.6-5.95.59-11.9,1.18-18.15,1.8,3.65-2.92,7.23-5.78,10.8-8.64.02-.23.03-.47.05-.7-2,.33-4,.66-6.01.99-.05-.2-.1-.4-.15-.6,2.5-.95,5-1.91,7.51-2.87-1.63-2.1-3.06-2.2-4.44-.85-.88.86-2.5,1.77-3.51,1.52-2.49-.61-4.82-1.88-7.27-2.91,3.33-6.82,11.05-3.39,16.17-6.97-1.58-.09-3.16-.19-4.99-.3-1.44-3.34-3.85-3.36-6.55-1.04-1.81,1.55-3.13,1.32-4.69-.45-3.03-3.44-1.89-7.57,2.78-9.56,4.38-1.87,8.73-3.79,13.12-5.63,1.02-.43,2.11-.85,3.19-.91,3.47-.2,6.96-.14,10.43-.39,1.37-.1,2.71-.78,5.17-1.53-2.11-1.02-3.18-2-4.23-1.98-4.77.08-9.39.51-14.1-1.57-3.61-1.59-7.88-1.68-12.36-2.54.75-.7,1.14-1.15,1.6-1.48,2.79-1.96,5.67-3.79,8.33-5.89.6-.47.5-1.85.72-2.81-.96-.04-1.93-.17-2.88-.09-.49.04-.95.45-1.42.7-.38-.42-.76-.85-1.15-1.27,1.28-.42,2.56-.85,4.08-1.35-4.25-5.16-9.22-2.56-13.15-3.69,3.11-1.41,6.36-2.88,9.6-4.34-.07-.21-.13-.41-.2-.62-4.27.4-8.55.81-13.24,1.25,2.31-3.01,10.97-.61,6.31-7.99,3.33-2.42,6.53-4.75,9.74-7.08-3.83,1.35-1-2.54-2.42-3.07-3.56,1.26-7.11,2.52-10.66,3.78,4.25-2.83,9.94-3.96,10.01-10.71-.06-.03-.88-.45-1.69-.87,1.6-1.34,2.53-1.54,3.41-1.88,3.18-1.22,6.43-2.37,7.86-5.93,2.32.96,4.49,1.11,6.57-1.35-2.15-.66-4.05-1.24-6.24-1.9-.1,1.45-.16,2.41-.23,3.38-.51-.69-1.11-1.33-1.5-2.08-1.5-2.89-3.12-5.64,1.54-7.55,1.59-.65,2.4-2.78.2-4.75-5.27,5.81-12.3,7.83-19.89,9.79,1.7-5.15,4.56-9.66.91-14.52,1.23-2.08,2.01-4.87,3.84-6.13,2.14-1.46,5.19-1.58,7.85-2.28l.92-1.01c-4.78-1.47-4.3-4.71-4.01-7.97.08-.92-.29-2-.77-2.83-2.22-3.9-1.85-5.69,1.9-8.25.69-.47,1.43-.88,2.22-1.36-.97-.46-1.75-.82-3.56-1.68,2.63-.87,4.26-1.41,5.32-1.76.41-1.17.46-2.43,1.1-2.92,3.49-2.7,5.64-5.91,6.18-10.49.39-3.32-.07-4.4-3.38-3.63-4.04.95-7.44,2.78-8.31,7.46-.38-5.51-.19-5.69,11.49-11.28.73-3.34-1.49-3.96-3.93-4.29-4.2-.58-6.04-4.1-8.55-6.8-.69-.75-1.31-1.57-2.07-2.24-.96-.85-2.92-1.68-2.84-2.32.14-1.22,1.28-3.08,2.29-3.29,3.33-.69,3.65-3.21,4.9-6.42-2.54.34-4.4.67-6.29.81-.91.07-1.85-.22-2.77-.35.69-.68,1.26-1.6,2.08-2,1.36-.65,2.88-.97,4.34-1.42-.05-.21-.1-.42-.16-.63-2.55.31-5.11.62-7.66.93l-.13-.76c.92-.41,1.84-.81,3.51-1.55-3.07-1.66-5.54-2.99-7.34-3.96,1.32-1.61,2.88-3.51,4.34-5.29-1.65-.14-3.33-.29-5.01-.43-.01-.38-.03-.76-.04-1.13,1.62-.19,3.27-.26,4.86-.6,1.39-.3,2.71-.9,4.06-1.36-.11-.27-.23-.54-.34-.82-2.06.14-4.11.28-6.17.42-.04-.37-.07-.73-.11-1.1,1.93-.37,3.86-.74,6.11-1.17-.73-.56-1.64-.99-1.6-1.26.39-2.28-.09-3.81-2.72-3.93.19-.66.29-1.86.57-1.91,3.33-.5,6.84-1.62,10.02-1.04,5.67,1.05,8.56-4.5,13.49-4.77.17,0,.28-.98.65-2.38-4.88.54-9.16,1.02-14.05,1.56-.1-.75-.28-2.15-.45-3.5,2-.25,3.42-.43,5.82-.72-1.44-.78-1.99-1.08-2.54-1.38.84-.6,1.68-.56,2.52-.61,1.13-.07,2.29-.08,3.38-.36,1.59-.4,3.11-1.33,4.7-1.44,2.08-.14,4.2.27,6.29.5,2.71.3,4.87-.06,6.69-2.66,1.17-1.67,3.57-3.53,5.39-3.5,4.36.09,8.68,1.39,13.05,1.91,2.64.31,5.34.06,8.02.06-.01-.65-.02-1.31-.03-1.96h-4.31c1.45-1.7,2.64-3.1,3.71-4.35,4.22.26,8.41.53,12.6.75,1.09.06,2.2,0,3.29-.08,2.53-.2,5.17-.09,7.57-.78,3.3-.95,6.37-2.66,9.63-3.74,1.14-.38,2.57.19,3.88.23,1.78.05,3.57.01,5.46.01-.25-1.55-.4-2.42-.55-3.33h5.45c-1.16,1.4-2.31,2.78-3.74,4.5,1.91-.16,3.19-.26,4.48-.37.05.27.1.54.16.81-2.07.86-4.15,1.72-6.47,2.69.86.57,1.34.89,2.23,1.47-3.97,1.81-7.7,3.52-11.43,5.23l.34.91c2.12-.51,4.26-.97,6.36-1.54,4.02-1.08,4.02-1.1,4.64,1.62-1.42.22-2.84.44-4.26.67.07.45.14.9.21,1.36,3.61-.65,7.22-1.33,10.84-1.92,2.4-.39,4.83-.89,7.24-.88,3.74,0,7.48.34,11.21.64,3.72.3,8.02-.27,10.98,1.43,2.78,1.6,4.91.5,7.28.68,2.51.19,5.08-.42,7.61-.31,2.62.11,5.21.88,7.83.95,1.87.05,3.76-.58,5.63-.9-.05-.21-.11-.43-.16-.64-3.26-.29-6.51-.59-9.77-.88-.12-.49-.25-.98-.37-1.47,2.61-2.38,6.98,1.22,9.4-1.57,1.56,2.38,3.58,3.3,6.02,2.89,4.6-.77,6.83.2,9.2,3.81.19.29,1.14.09,1.45.11.3-1.46.56-2.7.92-4.42,3.56,1.21,6.67,2.26,10.48,3.55-2.59.34-4.31.56-6.02.78.05.55.1,1.09.16,1.64,5.13-.33,10.26-.97,15.38-.9,4.99.07,9.98.87,14.72,1.33.7.61,1.45,1.27,2.21,1.94.82-3.07,2.32-.26,3.2-.13,2.28.35,4.45,1.43,6.74,2.25v-5.87c2.06,1.27,4.53,2,4.64,3,.53,4.66,4.05,3.78,6.82,4.15,3.94.52,7.92.77,11.88,1.17.96.1,1.91.32,3.28.55.59,2.42,2.17,2.88,5.87.89.27.53.54,1.07.41.81,1.89-.56,3.25-.96,4.99-1.48-.31,1.16-.46,1.7-.5,1.86,8.91,2.47,17.74,5.81,27.15,3.01-2.68-.31-5.41-.55-8.07-.25-3.49.4-4.48-2.12-5.98-4.17.2-.29.41-.59.61-.88,1.87,1.2,3.73,2.4,5.63,3.62.41-.69.83-1.38,1.49-2.47.57,1.14.93,1.85,1.28,2.55,3.09-.27,6.13-.53,9.24-.8.75,1.8,1.52,3.62,2.2,5.24,1.23-.08,2.56-.16,3.9-.25.21-.28.41-.55.62-.83-1.41-1.08-2.83-2.16-4.25-3.25,1.55-.64,3.12-.91,4.28,1.49,2.84,5.92,6.83,7.14,13.28,3.98-2.9-.91-5.58-1.76-8.27-2.6.1-.33.19-.66.29-.98,9.05,3.61,19.3,1.84,28.08,6.76.92.51,2.16.51,3.26.63,5.18.58,6.39,2.12,5.79,8.12-3.78-1.26-7.42-2.47-10.95-3.65.51,1.39.87,2.4,1.24,3.41-1.07.34-2.14.95-3.22.96-5.95.1-11.9.05-17.86.05-.06.29-.12.59-.18.88,1.34.45,2.65,1.01,4.01,1.32,8.16,1.87,16.33,3.66,24.49,5.52,1.08.25,2.12.71,3.12,1.19,4.63,2.24,6.09,6.9,7.91,11.1.53,1.21-.84,3.16-1.05,4.81-.1.77.36,2.25.79,2.34,4.04.81,3.59,3.66,3.08,6.81,2.52.94,5.58,1.27,7.39,2.95,2.68,2.49,4.77,5.78,6.45,9.07.44.86-1.43,3.01-2.4,4.46-1.2,1.8-1.27,2.87,1.01,4,4.05,2.02,7.59,4.55,9.2,9.34.59,1.75,3.26,2.79,5.1,4.25-1.67,2.29-4.08,1.26-6.34.38-2.9-1.13-5.8-2.54-8.68-.28-1.24.97-2.08,2.45-3.23,3.85h-3.95c3.9,3.55,2.81,10.19,9.86,9.62,1.72-.14,3.63.82,5.29,1.61.96.46,1.61,1.57,2.38,2.41.73.79,1.43,1.62,2.14,2.43.46-1.13.91-2.27,1.56-3.9.27.19,1.24.48,1.41,1.02,1.14,3.71-1.15,5.3-3.57,6.16-3.43-1.66-6.44-3.11-8.98-4.35-.66,3.87-1.18,6.94-1.77,10.45.64.59,1.8,1.66,3.36,3.1-2.68-.23-4.87-.29-7-.65-1.77-.31-3.54-1.84-6,.06,2.88.66,4.78,1.1,6.67,1.53l-.02.7c-1.58.59-3.16,1.17-4.76,1.77,3.01,4.84,6.28,6.28,9.88,3.92,1.07,3.32,2.08,6.47,3.26,10.13-3.3.8-7.16,1.73-10.67,2.57,1.15,1.47,2.13,2.73,3.43,4.4h-6.79c-.1.44-.2.89-.3,1.33,1.46.54,2.93,1.06,4.38,1.63,1.44.57,3.51.84,4.09,1.91.52.94-.64,2.79-1.18,4.7,2.95.48,6.06,1,9.56,1.57-.73,1.57-1.21,2.6-1.79,3.84,1.79,1.49,3.54,2.95,5.29,4.4-1.94.22-4.04.23-5.5-.73-5.31-3.47-10.43-7.11-17.04-7.81-2.88-.31-6.38.79-7.23,3.57,2.07-.35,3.83-.65,5.54-.94-1.13,2.37-4.61,2.97-7.63,1.43-1.75-.9-3.33-3.3-5.67-.88-.14.15-.87-.25-1.32-.4-2.01-.69-3.98-1.86-6.02-1.99-4.68-.3-9.39-.09-13.85-.09,1.42,2.11,12.83,5.49,16.73,4.37-1.56-.79-2.78-1.4-4.68-2.36,6.38,1.84,12.03,3.47,17.67,5.11,0,.06-.02.12-.02.19-.98-.12-1.97-.24-2.94-.36,2.39,1.78,4.71,3.5,7.06,5.24-.06-.5-.14-1.08-.12-.96,3.73,1.26,7.47,2.53,11.2,3.79,0-.17-.02-.34-.03-.51,2.8.41,5.61.81,8.41,1.22-.04.48-.08.95-.12,1.43-17.28-1.72-34.55-3.44-51.83-5.16,0-.11-.01-.22-.02-.33h9.27c0-.32.02-.64.02-.97h-15c1.36.71,2.96,1.55,4.57,2.38-.11.24-.23.48-.34.71-2.91-.71-5.81-1.42-8.72-2.13l-.58,1.35c.74.58,1.48,1.17,2.23,1.74.64.49,1.88,1.03,1.84,1.45-.23,2.38,1.41,2.01,2.83,2.4,5.96,1.65,11.88,3.46,17.82,5.21-.08.33-.17.67-.25,1-6.86-2.08-13.68-4.35-20.75-3.77,2.74,5.62,6.96,9.24,12.95,10.74-2.34-.31-4.68-.63-7.02-.94-.21.37-.42.74-.63,1.1.94.85,1.76,1.92,2.84,2.5,1.34.73,2.9,1.06,4.9,1.75-1.23.61-1.89.94-3.13,1.55,1.99.8,3.42,1.5,4.93,1.97,7.45,2.3,14.93,4.51,22.37,6.82,1,.31,2.59.85,2.72,1.52.73,3.7,3.77,3.6,6.38,4.47,3.25,1.09,6.31,2.74,9.58,3.74,4.56,1.4,6.48,3.93,4.65,8.54-5.01.25-10.05.49-15.09.74,0,.28,0,.56-.01.85h6.05c.03.47.05.95.08,1.42-3.05.16-6.32,1.1-9.11.32-4.98-1.39-9.75-.32-14.6-.09-1.29.06-2.55.92-3.83,1.42.1.44.2.88.3,1.32,3.49.26,6.97.53,10.36.78-.16-.35-.43-.92-.44-.94,4.54,3.17,9.39,6.55,14.23,9.93l-.07.82c-1.51-.37-3.02-.75-5.4-1.34,1.48,2.15,2.56,3.73,4.14,6.02-1.56-.74-2.62-1.08-3.5-1.69-2.1-1.45-3.67-.8-4.59,1.56-1.2,3.05.15,4.76,2.61,6.63-2.3.22-4.6.43-6.9.65,0,.41-.01.83-.02,1.24,1.43,0,2.86-.09,4.28.03,1,.08,1.98.43,2.96.7,1.41.39,2.8.9,4.22,1.22.97.21,1.99.17,2.99.24-.16.98-.31,1.96-.45,2.8-1.69-.55-3.23-1.62-4.11-1.23-2.28,1.03-4.28,2.7-6.9,4.46,1.89,1.27,3.36,2.25,4.87,3.27.18,1.28.72,2.79.51,4.19-.33,2.11-.6,5.33-1.92,5.97-3.77,1.83-8.03,2.13-12.33,1.05-3.33-.83-6.81-1.1-10.22-1.62,1.32,1.32,2.79,1.78,4.26,2.22,1.01.3,2.7.34,2.91.92,1.46,3.98,5.13,4.19,8.31,5.23,1.52.49,3.11.75,4.66,1.15.09.02.12.33.18.53-.73.1-1.46.2-2.19.3.76,2.71,3.41,4.42,7.47,5.11,6.69,1.15,12.91,3.97,20.18,3.27,6.32-.61,12.2,2.75,17.09,7.1ZM143.82,420.89c0-.18,0-.36,0-.54,1.43.33,2.85.9,4.29.94,4.71.12,9.43.14,14.14,0,1.87-.06,3.72-.96,5.57-.94,7.16.1,14.32.46,21.48.62,2.11.05,4.24-.5,6.32-.34,2.57.2,5.09,1.19,7.64,1.26,8.9.24,17.81.3,26.71.28,3.28,0,6.56-.44,10.94-.76-5.52-1.42-9.87-2.95-14.35-3.6-6.98-1.01-14.03-1.93-21.06-1.98-16.23-.11-32.46.24-48.68.59-5.68.12-11.36.72-17.02,1.27-1.3.13-2.53.99-3.79,1.52.07.43.14.86.2,1.29,2.54.13,5.07.26,7.61.39ZM274.15,417.93c.16.25.31.5.47.75.98-1.03,2.14-1.97,2.82-3.17.2-.36-.84-2.03-1.5-2.17-5.42-1.13-10.85-2.43-16.35-2.85-2.81-.22-5.76,1.21-8.63,1.98-4.75,1.26-9.49,2.59-14.24,3.89.05.39.1.77.16,1.16,2.27-.16,4.57-.13,6.8-.52,4.1-.72,8.08,2.06,12.21.31.33-.14,1.31.48,1.53.96,1.13,2.49,1.39,2.73,4.07,2.03,3.14-.83,6.26-1.75,9.36-2.71.73-.23,1.35-.79,1.25-.72-.61-1.37-1.07-2.38-1.52-3.4.25-.24.5-.47.74-.71,1.26.66,2.79,1.08,3.66,2.07.39.45-.51,2.04-.82,3.11ZM296.98,75.54c.04-.33.07-.66.11-1-18.15-4.75-36.79-4.83-55.36-5.58-.03.33-.07.67-.1,1,18.45,1.86,36.91,3.72,55.36,5.58ZM283.42,419.06c1.77-1.44,3.12-2.54,4.48-3.65-.23-.36-.47-.71-.7-1.07-3.75,2.09-7.51,4.18-11.8,6.57,8.34,2.96,9.71,4.04,11.58-2.78-1.09.28-2.08.54-3.56.93ZM320.2,79.54c-6.83-2.38-13.6-5.14-21.02-3.15,7.01,1.05,14.02,2.1,21.02,3.15ZM218.95,410.25c.05.57.11,1.13.16,1.7,7-.99,13.99-1.97,20.99-2.96-.04-.35-.09-.7-.13-1.06-7.01.77-14.01,1.54-21.02,2.32ZM411.25,321.86c1.14-.07,2.54-.15,3.94-.23-4.45-4.18-7.5-.77-11.38,1.3,2.87.18,5.55,2.6,7.45-1.07ZM200.38,407.71c0-.36.01-.72.02-1.08-6.22-.35-12.44-.71-18.66-1.06-.02.41-.04.82-.06,1.24,6.23.3,12.46.61,18.7.91ZM374.83,87.48l-.21,1.26c5.25.93,10.49,1.86,15.74,2.79.07-.38.14-.77.2-1.15-5.24-.96-10.49-1.93-15.73-2.89ZM72.82,232.93c-1.04,1.56-1.89,2.84-2.74,4.12.21.27.43.55.64.82,1.89-.66,3.78-1.32,6.15-2.14-1.62-1.12-2.59-1.79-4.05-2.8ZM244.81,409.89c.11.69.22,1.38.33,2.06,3.14-.59,6.27-1.18,9.41-1.78-.05-.31-.09-.62-.14-.94-3.2.22-6.4.43-9.6.65Z"/>
    <path class="cls-3" d="M40,291.73c1.43-.5,2.97-.81,4.24-1.56,1.33-.79,2.4-2.02,3.93-2.78-1.15,1.29-2.3,2.57-3.45,3.86,2.55-.43,4.05-4.82,7.62-.17-4.33,1.28-8.34,2.46-12.34,3.63,0-.99,0-1.99,0-2.98Z"/>
    <path class="cls-3" d="M143.82,420.89c-2.54-.13-5.07-.26-7.61-.39-.07-.43-.14-.86-.2-1.29,1.26-.53,2.49-1.39,3.79-1.52,5.66-.56,11.34-1.15,17.02-1.27,16.22-.35,32.45-.7,48.68-.59,7.03.05,14.09.97,21.06,1.98,4.48.65,8.83,2.18,14.35,3.6-4.38.32-7.66.75-10.94.76-8.9.02-17.81-.04-26.71-.28-2.56-.07-5.08-1.06-7.64-1.26-2.09-.16-4.22.39-6.32.34-7.16-.16-14.32-.52-21.48-.62-1.85-.03-3.71.88-5.57.94-4.71.15-9.43.13-14.14,0-1.44-.04-2.86-.61-4.29-.94,0,.18,0,.36,0,.54Z"/>
    <path class="cls-3" d="M274.15,417.93c.31-1.07,1.22-2.66.82-3.11-.87-1-2.4-1.42-3.66-2.07-.25.24-.5.47-.74.71.46,1.02.91,2.03,1.52,3.4.1-.06-.52.5-1.25.72-3.1.96-6.22,1.89-9.36,2.71-2.68.7-2.93.46-4.07-2.03-.22-.48-1.19-1.1-1.53-.96-4.13,1.75-8.11-1.03-12.21-.31-2.23.39-4.53.36-6.8.52-.05-.39-.1-.77-.16-1.16,4.74-1.3,9.48-2.63,14.24-3.89,2.87-.76,5.82-2.19,8.63-1.98,5.49.42,10.93,1.72,16.35,2.85.66.14,1.71,1.81,1.5,2.17-.68,1.2-1.84,2.13-2.82,3.17-.16-.25-.31-.5-.47-.75Z"/>
    <path class="cls-3" d="M296.98,75.54c-18.45-1.86-36.91-3.72-55.36-5.58.03-.33.07-.67.1-1,18.57.75,37.21.83,55.36,5.58-.04.33-.07.66-.11,1Z"/>
    <path class="cls-3" d="M283.42,419.06c1.48-.38,2.47-.64,3.56-.93-1.87,6.82-3.24,5.74-11.58,2.78,4.29-2.39,8.05-4.48,11.8-6.57.23.36.47.71.7,1.07-1.36,1.1-2.71,2.21-4.48,3.65Z"/>
    <path class="cls-3" d="M320.2,79.54c-7.01-1.05-14.02-2.1-21.02-3.15,7.42-2,14.2.76,21.02,3.15Z"/>
    <path class="cls-3" d="M218.95,410.25c7.01-.77,14.01-1.54,21.02-2.32.04.35.09.7.13,1.06-7,.99-13.99,1.97-20.99,2.96-.05-.57-.11-1.13-.16-1.7Z"/>
    <path class="cls-3" d="M411.25,321.86c-1.9,3.67-4.58,1.25-7.45,1.07,3.88-2.08,6.94-5.49,11.38-1.3-1.4.08-2.79.17-3.94.23Z"/>
    <path class="cls-3" d="M200.38,407.71c-6.23-.3-12.46-.61-18.7-.91.02-.41.04-.82.06-1.24,6.22.35,12.44.71,18.66,1.06,0,.36-.01.72-.02,1.08Z"/>
    <path class="cls-3" d="M374.83,87.48c5.24.96,10.49,1.93,15.73,2.89-.07.38-.14.77-.2,1.15-5.25-.93-10.49-1.86-15.74-2.79l.21-1.26Z"/>
    <path class="cls-3" d="M73.69,203.32c.07-.96.13-1.93.23-3.38,2.19.67,4.09,1.25,6.24,1.9-2.08,2.46-4.25,2.31-6.57,1.35,0,0,.1.13.1.13Z"/>
    <path class="cls-3" d="M72.82,232.93c1.46,1.01,2.42,1.68,4.05,2.8-2.36.82-4.26,1.48-6.15,2.14-.21-.27-.43-.55-.64-.82.85-1.28,1.7-2.56,2.74-4.12Z"/>
    <path class="cls-3" d="M244.81,409.89c3.2-.22,6.4-.43,9.6-.65.05.31.09.62.14.94-3.14.59-6.27,1.18-9.41,1.78-.11-.69-.22-1.38-.33-2.06Z"/>
    <path class="cls-3" d="M137.5,438.26c-9.57.82-19.14,1.64-28.71,2.45-.05-.34-.11-.68-.16-1.02,3.29-.7,6.63-1.24,9.87-2.14,3.76-1.04,7.41-2.45,11.14-3.59.93-.28,1.99-.13,2.98-.18-.25.8-.5,1.61-.71,2.26,1.86.36,3.84.74,5.82,1.12-.07.37-.15.73-.22,1.1Z"/>
    <path class="cls-3" d="M394.64,263.96c9.48,2.17,18.96,4.34,28.44,6.51.03.38.06.76.09,1.14-1.4.24-2.95.98-4.19.63-7.79-2.21-15.52-4.66-23.27-7.03-.46-.14-.89-.34-1.34-.51l.26-.74Z"/>
    <path class="cls-3" d="M52.76,262.93c.39-1.68.44-2.29.68-2.82.18-.42.59-.74.18-.25h12.73c.01.42.03.84.04,1.27-4.32.57-8.63,1.15-13.63,1.81Z"/>
    <path class="cls-3" d="M47.47,264.48q-1.32-2.5,3.9-7.19.6,2.13-3.9,7.19Z"/>
    <path class="cls-3" d="M405.32,258.19c3.85,1.5,7.7,3.01,11.55,4.51-4.36-.22-8.72-.43-12.04-3.53.16-.33.33-.66.49-.99Z"/>
    <path class="cls-3" d="M420.86,258.82c3.52,1.11,7.03,2.21,10.55,3.32l-.32.58c-2.7-.18-5.43-.22-8.1-.62-1.24-.19-2.38-1.08-3.57-1.65.48-.55.96-1.09,1.44-1.64Z"/>
    <path class="cls-3" d="M91.85,336.65c3.13-.4,6.03-.77,8.94-1.15-2.45,2.42-7.94.11-7.45,6.13-.38,0-.76-.01-1.14-.02-.12-1.67-.23-3.35-.35-4.96Z"/>
    <path class="cls-3" d="M281.18,431.44c3.18.36,6.36.73,9.54,1.09-.06.46-.12.92-.18,1.37-3.18-.34-6.37-.69-9.55-1.03.06-.48.12-.95.18-1.43Z"/>
    <path class="cls-3" d="M432.42,327.01c-3.12-.62-6.24-1.24-9.37-1.87.06-.35.12-.7.18-1.05,3.14.48,6.29.96,9.43,1.44-.08.49-.17.98-.25,1.47Z"/>
    <path class="cls-3" d="M206.77,60.45c2.53-2.08,5.01-2.32,7.49-2.41.24,0,.84,1.14.69,1.37-.31.48-1,.96-1.56.99-1.9.12-3.81.05-6.63.05Z"/>
  </g>
  <text class="cls-1" transform="translate(105.71 222.18)"><tspan class="cls-5"><tspan x="0" y="0">COOR</tspan><tspan class="cls-6" x="224.15" y="0">D</tspan><tspan x="275.97" y="0">.</tspan></tspan><tspan class="cls-4"><tspan x="20.48" y="48">ESPORTES</tspan></tspan></text>
  <text class="cls-2" transform="translate(333.36 242.04)"><tspan x="0" y="0">DE</tspan></text>
</svg>