<?xml version="1.0" encoding="UTF-8"?>
<svg id="Camada_5" data-name="Camada 5" xmlns="http://www.w3.org/2000/svg" viewBox="0 0 500 500">
  <defs>
    <style>
      .cls-1 {
        fill: #ed6b30;
        stroke-width: 0px;
      }

      .cls-2 {
        fill: #f9fafb;
        font-family: StretchProRegular, 'Stretch Pro';
        opacity: .97;
      }

      .cls-3 {
        font-size: 30px;
      }

      .cls-4 {
        font-size: 46.77px;
      }

      .cls-5 {
        letter-spacing: -.03em;
      }
    </style>
  </defs>
  <g>
    <path class="cls-1" d="M455.18,365.58c-2.24.14-4.59.79-6.7.32-10.35-2.3-20.65-4.81-30.91-7.48-1.95-.51-3.79-1.83-5.39-3.13-1.65-1.35-2.88-1.44-4.37.09-4.38,4.49-3.66,10.72,1.64,14.11,2.14,1.37,4.37,2.64,6.28,4.29,4.45,3.86,3.66,10.07-1.92,11.26-7.84,1.67-13.55,5.58-18.58,11.63-1.39,1.68-5.51,1.17-8.39,1.52-6.89.84-12.48-3.8-18.99-4.6-2.26-.28-4.53-.58-6.74-1.13-3.13-.77-3.65-2.48-1.7-4.93,3.38-4.25,3.02-5.17-2.45-6.18-.24-.04-.48-.18-.71-.16-9.88,1.09-19.99.81-29.43,4.68-.62.25-1.59.59-1.99.31-4.63-3.24-9.66-1.36-14.5-1.15-13.66.57-27.15,2.42-40.21,6.64-4.11,1.33-8.15,2.93-12.11,4.66-4.95,2.16-5.66,1.88-8.54-2.69-.63-1-2.83-1.6-4.19-1.44-4.25.5-8.44,1.46-13.49,2.4,3.3-3.92,29.3-12.74,33.48-11.54-3.7,1.99-7,3.77-10.31,5.55,3.45,2.55,6.24.97,8.89-.07,5.62-2.21,11.22-4.55,16.63-7.24,8.58-4.28,17.49-6.87,27.13-6.74.36,0,.73-.05,1.07-.16.19-.06.33-.29.48-.44-.1-.2-.21-.56-.28-.55-10.92,1.21-21.62-2.47-32.74-.56-15.26,2.62-30.45,5.35-44.94,10.81-5.57,2.1-10.91,2.17-16.32.97-5.73-1.27-10.77-.1-15.7,2.57-5.67,3.07-11.56,4.76-18.1,5.55-5.62.69-11.31.9-16.76,1.7-11.06,1.61-22.42,3.86-31.2,12.13-.87.82-3,.46-4.53.4-2.54-.1-5.11-.79-7.6-.53-3.34.34-6.58,1.57-9.92,2-4.25.54-6.18-1.95-4.83-5.99.49-1.46,1.12-3.17,2.25-4.06,5.19-4.1,10.31-8.4,15.98-11.73,4.64-2.73,10.13-3.99,15.02-6.36,1.85-.9,3.33-2.91,4.52-4.72,1.23-1.87,1.95-4.1,2.8-6.2.27-.68.6-1.75.28-2.15-.39-.49-1.51-.77-2.17-.59-2.09.56-4.25,1.13-6.14,2.14-7.22,3.85-14.31,7.94-21.54,11.79-2.19,1.17-4.58,2.35-6.99,2.66-4.52.59-6.78-2.82-4.31-6.65,2.21-3.41,5.24-6.29,7.95-9.37.55-.63,1.59-.99,1.84-1.68.65-1.8,1.93-4.28,1.24-5.47-1.36-2.32-3.59-.66-5.35.42-5.58,3.4-7.45,3.09-11.43-2.24-1.38-1.85-2.81-2.02-4.65-.88-2.65,1.63-5.39,2.74-7.65-.44-1.81-2.55-.96-6.51,2.02-8.66,2.55-1.83,3.26-3.74,2.42-6.81-.32-1.16.79-3.19,1.85-4.17,3.05-2.82,2.95-5.21-.7-7.36-4.95-2.93-5.14-5.31-.4-8.81,3.02-2.23,6.32-4.09,10.2-6.56.26,2.31.37,3.3.47,4.25,4.27.58,6.81-1.08,7.24-4.6.37-3.04-1.36-4.66-5.35-5.34-2.44-.42-5.59-.41-6.03-3.61-.43-3.13,1.34-5.74,4.21-6.97,4.73-2.02,9.61-3.68,14.45-5.42,2.09-.75,2.7-1.84,1.35-3.78-1.89-2.72-4.75-3.09-7.48-2.43-8.83,2.14-17.67,4.34-26.35,7.02-4.08,1.26-7.8,3.65-12.22,5.08,1.44-1.8,2.66-3.84,4.35-5.34,4.25-3.76,8.55-7.48,14.2-9.18,1.81-.54,3.6-1.49,5.1-2.64.87-.67,1.13-2.12,1.66-3.21-1.2-.18-2.61-.86-3.57-.46-3.1,1.31-6,3.09-9.06,4.52-1.27.59-2.81,1.14-4.11.94-1.37-.21-3.13-1.04-3.73-2.13-.49-.89.06-2.95.87-3.85,2.24-2.51,4.83-4.73,7.34-7,2.64-2.4,5.18-4.74,1.87-8.46-.33-.38-.34-1.16-.29-1.74.4-4.29.85-8.58,1.35-13.53-1.67.42-3.15.62-4.51,1.16-2.43.96-4.75.82-6.19-1.36-2.87-4.35-7.95-4.57-11.9-6.87-.1-.06-.26-.1-.35-.06-5.32,2.37-10.67,4.68-15.88,7.27-.31.15.23,2.69.87,3.85.43.79,1.73,1.1,2.83,1.73-3.06,3.58-6.29,2.71-9.6,1.17,0-2.18,0-4.37,0-6.55,2.49-3.02,4.9-6.11,7.51-9.03,2.04-2.28,1.95-3.87-.8-5.46-.68-.39-1.26-2.48-1.07-2.62,3.25-2.25,4.95-5.16,4.72-9.2-.03-.57.65-1.32,1.19-1.77,2.1-1.8,4.16-3.68,6.44-5.22,1.99-1.34,4.33-2.17,6.41-3.4,2.83-1.68,3.04-3.1.62-5.33-.97-.89-2.48-1.62-3.76-1.65-4.17-.09-8.36.08-12.54.34-3.53.22-4.77-.9-4.27-4.35.51-3.5,2.57-5.97,5.56-7.62,3.16-1.75,6.37-3.44,9.68-4.89,2.02-.88,3.13-1.79,1.91-4.05-1.47-2.74-.28-4.89,1.65-6.81,1.19-1.19,2.57-2.21,3.62-3.51,1.46-1.82.97-3.31-1.16-4.34-4.15-2-4.41-4.14-.46-6.75,3.52-2.32,7.48-3.95,11.07-6.18,1.52-.94,3.2-2.44,3.7-4.03,1.23-3.88,3.25-6.03,7.23-5.03,4.08,1.02,7.46-.25,10.75-1.87,6.17-3.03,12.16-6.42,18.2-9.72,1.96-1.07,2.57-2.29,1.31-4.69-2.46-4.69-1.55-8.56,3.14-9.83,2.2-.6,4.32-1.55,6.43-2.44,4.88-2.05,9.76-4.12,14.59-6.28,1.73-.77,1.86-1.95,1.17-3.84-.98-2.69-1.8-5.66-1.72-8.48.15-5.26-.77-6.26-6.05-4.91-3.88.99-7.75,2.01-11.63,3.02-.11-.29-.23-.58-.34-.87,6.58-3.18,13.17-6.35,19.74-9.55,2.17-1.06,4.23-2.36,6.45-3.27,2.27-.93,4.64-1.72,7.04-2.21,9.15-1.87,18.6-2.46,27.14-6.81,1.01-.51,2.55-.99,3.42-.58,6.8,3.24,13.92,1.16,20.38.04,10.53-1.83,21.2.73,31.61-2.41,5.29-1.6,10.23,2.07,15.36,3.21,4.08.9,8.34,2.07,12.39,1.72,3.65-.32,6.06.51,8.88,2.6,4.96,3.67,10.57,6.22,16.99,5.69,1.24-.1,2.4-1.18,3.6-1.81-.8-.98-1.43-2.23-2.44-2.89-2.1-1.38-4.41-2.46-6.86-3.78.58-.49.76-.77.93-.76,8,.41,15.81,1.84,22.94,5.6,2.66,1.4,3.09,5.51,1.38,8.01-.57.84-1.21,1.63-2.08,2.8,6.89.64,13.22,1.06,19.5,1.87,6.46.83,12.7,2.5,16.57,8.41.74,1.13,1.23,3.61.63,4.17-.96.89-3.12,1.27-4.43.83-3.75-1.24-7.3-3.09-11-4.51-1.25-.48-2.72-.4-4.09-.57-.22.47-.45.93-.67,1.4,1.82,1.56,4.06,2.84,5.35,4.76,1.95,2.91,4.51,3.93,7.71,4.74,5.82,1.46,11.53,3.35,17.23,5.23,3.66,1.21,7.16,2.89,10.83,4.06,3.94,1.26,7.07,3.2,9.41,6.83.94,1.45,3.58,2.6,5.39,2.54,4.46-.15,8.25,1.29,12.12,3.15,4.63,2.22,9.33,4.42,14.18,6.05,6.05,2.04,7.97,6.54,4.64,12.17-2.32,3.93-1.81,5.45,2.49,7.3,1.99.86,4.12,1.5,5.94,2.63.82.51,1.63,2.13,1.4,2.95-.24.85-1.68,1.78-2.7,1.91-1.76.23-3.61-.31-5.41-.21-2.85.16-5.68.57-8.52.87-.11.59-.22,1.18-.33,1.77,2.53,1.38,4.91,3.21,7.61,4.02,3.77,1.14,7.81,1.4,11.67,2.26,2.7.61,5.02,4.94,4.68,8.17-.34,3.2-2.93,3.79-5.27,3.95-5.03.36-9.88.74-12.62,6.11,2.19.89,4.61,2.13,7.18,2.87,3.56,1.02,7.24,2.31,10.59-.89.38-.37,1.93.13,2.71.59,2.95,1.75,5.89,3.54,8.65,5.56,1.43,1.05,2.49,2.6,3.72,3.93-1.58.92-3.37,2.86-4.71,2.59-5.95-1.2-11.79-3.01-17.65-4.64-5.62-1.57-11.16-3.44-16.85-4.63-1.37-.29-3.87,1.24-4.62,2.61-.64,1.17-.09,3.9.94,4.9,2.18,2.1,4.9,4.71,7.61,4.97,5.69.54,8.65,4.37,12.08,7.8,1.98,1.99,1.69,4.15.25,6.57-1.18,1.99-1.9,4.32-2.45,6.6-.79,3.28-3.43,5.06-6.75,4.09-1.15-.34-2.33-.75-3.3-1.42-3.09-2.11-5.67-2.08-8.24.99-.98,1.18-2.8,1.66-4.21,2.5-.99.59-1.94,1.26-2.9,1.9,1.03.66,2.04,1.83,3.11,1.9,4.44.25,8.9.1,13.35.24,2.03.06,4.06.35,6.05.75,3.51.7,6.99,1.53,10.48,2.35,3.74.88,7.65,1.37,11.15,2.84,4.34,1.83,4.46,6.53.5,9.16-1.8,1.2-3.88,1.98-5.73,3.12-.95.59-1.67,1.54-2.49,2.33.16.35.33.7.49,1.05,1.15,0,2.4-.28,3.44.07,1.42.48,2.67,1.43,4,2.18-1.29.81-2.49,2-3.89,2.33-1.59.38-3.37,0-5.06-.06-6.53-.19-13.06-.44-19.59-.52-1.3-.02-2.61.63-4.41,1.1,3.59,3.98,7.91,3.57,11.85,3.97,2.61.27,4.56,1.09,5.11,3.67.68,3.19,2.38,4.55,5.63,4.96,1.26.16,3.28,2.33,3.17,3.4-.15,1.47-1.77,3.13-3.19,4.02-1.07.67-2.88.04-4.26.38-4.16,1.03-8.43,1.86-12.36,3.5-3.59,1.49-4.33,11.53-1.36,14.15.44.39,1,.77,1.56.91,2.42.59,4.85,1.14,7.29,1.59,4.62.85,9.27,1.55,13.88,2.44,2.8.54,4.36,2.23,5.59,4.99,1.48,3.34,4.1,6.16,6.05,9.31.92,1.48,2.44,3.78,1.91,4.69-.88,1.53-3.07,2.87-4.9,3.17-2.56.43-5.31.02-7.93-.36-4.01-.59-7.96-1.81-11.98-2.08-3-.2-6.07.82-9.13,1.05-4.94.37-9.91.47-14.85.83-1.45.11-2.86.72-5.11,1.32,4.3,2.66,5.22,7.89,10.5,7.89,4.32,0,8.63.36,12.95.57,0-.26,0-.52,0-.77-1.6-.77-3.19-1.53-4.79-2.3.12-.35.24-.69.35-1.04,4.39.58,8.79,1.11,13.17,1.77,5.59.83,11.19,1.65,16.73,2.72,2.04.4,4.01,1.56,3.61,4.22-.39,2.64-2.43,3.02-4.64,2.99-.61,0-1.23-.12-1.81,0-1.83.36-3.65.8-5.47,1.21,1.8,1.2,3.51,2.57,5.42,3.54,1.13.57,2.62.39,3.88.78,2.62.81,5.2,1.77,7.79,2.68v5.09Z"/>
    <path class="cls-1" d="M121.41,99.97l-.45-1.15c-4.08-1.22-7.72-.03-11.06,2.35-.57.41-.74,1.38-1.09,2.09.83.33,1.83,1.13,2.45.9,3.43-1.26,6.78-2.77,10.15-4.19Z"/>
    <path class="cls-1" d="M337.76,402.51c1.89,2.79,3.25,4.71,4.52,6.7,1.83,2.89,3.88,5.29,7.37,6.54,4.34,1.56,6.15,8.15,3.55,11.86-.54.77-1.88,1.52-2.71,1.4-1-.15-2.1-1.1-2.7-2-.55-.84-.35-2.15-.75-3.14-1.23-3.09-2.68-5.76-6.74-6.02-4.22-.27-8.13-1.46-9.36-6.48-.18-.74-1.71-1.59-2.63-1.6-1.52-.02-3.05.89-4.57.86-1.5-.03-2.98-.75-4.46-1.16.55-1.46.69-3.49,1.74-4.27,2.19-1.61,4.84-2.63,7.36-3.75,5.76-2.58,11.55-5.11,17.36-7.59.94-.4,2.01-.47,3.02-.7.21.35.42.7.63,1.06-3.93,2.8-7.85,5.6-11.64,8.3Z"/>
    <path class="cls-1" d="M373.51,410.72c-1.45,2.46-4.41,3.87-7.81,4.24-3.14.34-4.98-1.96-4.16-5.03.43-1.6,1.36-3.06,2.02-4.6.41-.97,1.07-2,1.01-2.97-.28-4.58,1.15-5.62,5.83-3.96-.81,2.27-2.56,4.73-2.16,6.77.37,1.89,3.03,3.33,5.28,5.55Z"/>
    <path class="cls-1" d="M152.48,413.49c2.23,5.29,1.18,7.86-2.6,7.93-.61.01-1.95-1.93-1.76-2.24,1.13-1.85,2.6-3.48,4.36-5.69Z"/>
    <path class="cls-1" d="M121.41,99.97c-3.37,1.42-6.72,2.93-10.15,4.19-.62.23-1.62-.58-2.45-.9.35-.71.52-1.68,1.09-2.09,3.34-2.38,6.98-3.57,11.06-2.35l.45,1.15Z"/>
  </g>
  <text class="cls-2" transform="translate(106.03 243.04)"><tspan class="cls-4"><tspan x="0" y="0">COOR</tspan><tspan class="cls-5" x="224.15" y="0">D</tspan><tspan x="275.97" y="0">.</tspan></tspan><tspan class="cls-3"><tspan x="37.22" y="36">EVENTOS</tspan></tspan></text>
</svg>