<?xml version="1.0" encoding="UTF-8"?>
<svg id="Camada_2" data-name="Camada 2" xmlns="http://www.w3.org/2000/svg" viewBox="0 0 500 500">
  <defs>
    <style>
      .cls-1 {
        fill: #f9fafb;
        font-family: StretchProRegular, 'Stretch Pro';
      }

      .cls-2 {
        fill: #161616;
        stroke-width: 0px;
      }

      .cls-3 {
        font-size: 46.77px;
      }

      .cls-4 {
        font-size: 32px;
      }

      .cls-5 {
        letter-spacing: -.03em;
      }

      .cls-6 {
        letter-spacing: -.14em;
      }
    </style>
  </defs>
  <g>
    <path class="cls-2" d="M38.33,238.58c2.65-.85,5.29-1.7,7.94-2.54l-1.38-2.34c-1.29-.79-2.58-1.59-3.87-2.38.07-.34.15-.69.22-1.03,4.52.67,9.04,1.33,13.56,2,.21-.64.42-1.28.64-1.92-10.92-4.1-24.03-4.15-31.08-16.06,5.83-4.07,11.93,1.37,18.44-.08-1.76-1.01-3.17-1.82-4.91-2.82,12.25.19,24.13.38,36,.57l.26-2.1c-2.89-.81-5.78-1.62-9.12-2.56,1.17-1.63,2.23-3.11,3.42-4.77-4.45-2.09-9.25-4.35-14.06-6.6.09-.37.18-.74.27-1.11,8.82,1.3,17.63,2.6,27.13,3.99-.1-3.19-.18-5.6-.26-8.05,3.23-1.29,6.49-2.26,9.42-3.85,2.32-1.26,3.46-.82,4.96,1.15,1,1.32,2.79,2.03,4.58,3.26,1.36-3.73.71-5.35-2.22-6.09-2.74-.69-5.35-1.9-8.1-2.48-1.3-.27-2.87.22-4.19.69-1.07.38-1.97,1.26-2.94,1.92-.31-1.26-.62-2.52-1.02-4.13-3.47-.87-7.3-1.82-11.14-2.78.04-.39.08-.78.13-1.17,4.03.34,8.1.42,12.07,1.09,9.16,1.54,18.22,3.7,27.42,4.94,4.58.62,9.35-.2,14.04-.37.04-.66.08-1.32.12-1.98-5.68-.84-11.36-1.67-17.04-2.51.02-.78.04-1.55.05-2.33,5.84-1.77,12.22,1.59,18.69-.79-.43-1.29-.7-3.69-1.35-3.8-3-.5-6.54-1.33-9.07-.21-2.99,1.33-4.91,2.85-6.68-1.07-.24-.54-.96-1.27-1.43-1.25-6.4.38-12.25-3.86-18.81-2.22-1.09.27-2.38.3-3.46,0-1.51-.42-2.91-1.25-4.36-1.9,1.32-.52,2.65-1.01,3.95-1.57,1.47-.63,2.92-1.31,4.38-1.96-.04.46-.08.92-.13,1.38,2.79.41,5.58.82,8.36,1.23,3.12.46,6.23,1.19,9.36,1.27,1.83.05,3.69-.95,5.54-1.48,0-.66.02-1.32.03-1.99,2.81,1,5.61,2.01,8.42,3.01.18-.36.36-.72.53-1.07-2.06-1.24-4.04-2.66-6.2-3.68-3.05-1.45-6.87-2.34-.59-7.8-3.69.46-5.16.98-6.48.72-1.6-.31-3.06-1.29-4.59-1.98.66-1.27,1.2-2.63,2.01-3.8,1.28-1.84,2.75-3.55,4.69-6.02-8.19-1.21-15.54-2.29-22.79-3.35-3.55-6.26-11.15-2.8-15.69-7.3,1.83.27,3.65.62,5.49.79,6.12.58,12.25,1.61,18.35,1.44,3.76-.11,7.47-2.09,11.13-3.2-4.44-3.4-11.58-3.64-15.1-.06-.96-4.86-4.69-5.18-8.51-5.82-4.79-.81-9.5-2.13-14.24-3.24.07-.46.14-.93.21-1.39,14.01.98,28.02,1.96,42.73,2.98-.87-3.17-1.56-5.7-2.58-9.41,1.75,1.21,2.58,1.51,2.97,2.09,3.75,5.6,8.7,7.18,14.8,4.8,1.1-.43,2.49-.45,3.68-.25,5.41.9,10.79,1.94,16.18,2.94,6.33,1.18,12.65,2.4,18.98,3.57,2.29.43,4.58.87,6.9,1.15,27.78,3.27,55.59,6.37,83.34,9.85,6.36.8,13.65,1.32,18.55,4.75,6.7,4.69,14.97,2.61,20.63,6.36,5.43,3.59,10.9,3.97,16.39,4.78,9.91,1.47,19.99,1.79,30.68,2.65-.75-1.15-1.19-1.82-1.47-2.24,1.34-1.25,2.63-2.46,4.03-3.76,3.93,2.36.5,4.38-1,6.67,5.53,5.95,15.72.5,21.4,9.15-16.94-1.21-32.53-2.32-48.12-3.43-.09.43-.17.85-.26,1.28,1.61.35,3.21.87,4.84,1.02,7.3.68,14.64.99,21.91,1.95,4.39.58,8.67,2.08,12.99,3.17,1.29.32,2.55.8,3.86.95,14.85,1.77,29.7,3.48,44.55,5.22,1.86.22,3.71.54,5.57.81-.08.67-.16,1.34-.24,2.01-8.42-.6-16.83-1.32-25.25-1.74-2.83-.14-5.7.46-8.55.71-4.41.39-8.82.91-13.25,1.09-2.94.12-5.9-.28-8.94.61,9.99.94,19.98,1.89,30.54,2.89-1.04,1.44-1.79,2.47-2.91,4.02,1.87.19,3.81,1,4.63.37,6.12-4.76,11.13,2.05,16.98,1.38,5.77-.66,11.72.24,17.59.45,0,.52,0,1.04,0,1.56-3.11,0-6.23.02-9.34.02-.02.55-.05,1.1-.07,1.65,12.24.74,24.47,1.48,36.71,2.21.05.41.1.82.15,1.23-2.43.8-4.87,1.6-7.3,2.4.08.49.16.99.25,1.48,8.14,2.26,16.29,4.52,24.43,6.78-.07.23-.15.47-.22.7-3.15.17-6.29.34-9.44.5-.13.62-.25,1.24-.38,1.87,6.45,2.69,12.89,5.39,19.34,8.08-10.54,2.33-20.28-1.78-30.71-2.3,8.07,3.09,16.13,6.17,24.2,9.26-.09.35-.18.71-.27,1.06-15.72-3.48-31.43-6.96-47.15-10.44-.11.44-.21.88-.32,1.32,8.91,2.18,17.81,4.35,28.14,6.88-2.71.58-4.05.87-5.52,1.19.85,2.87,8.35.87,4.6,6.49,8.36,3.01,16.81,6.05,25.26,9.09-.1.61-.21,1.21-.31,1.82-4.67-.35-9.34-.87-14.01-.97-1.91-.04-3.84.88-5.78,1.27-1.41.28-2.87.66-4.27.54-5.97-.53-11.93-1.3-17.9-1.81-1.79-.15-3.64.26-5.46.41,0,.42.02.83.02,1.25,8.95,1.32,17.91,2.64,26.86,3.95.03.35.06.7.09,1.04-5.35.33-10.69.86-16.05.94-20.45.32-40.91.48-61.36.73-.94.01-1.87.34-2.61.48,17.14,2.52,34.35,5.06,51.56,7.59.04.22.08.44.12.65-2.07-.01-4.15.09-6.21-.05-14.05-.96-28.08-2.35-42.15-2.82-6.87-.23-13.79,1.38-20.72,1.79-2.23.13-4.52-1.01-6.81-1.41-3.26-.57-6.54-.98-9.81-1.47l-.2,1.32c6.04,1.64,12.13,3.13,18.08,5.02,1.61.51,2.87,2.21,4.21,3.45,2.05,1.91,3.7,4.96,6.07,5.66,12.13,3.56,24.4,6.63,36.7,9.58,2.53.61,5.36-.05,8.05-.13l.19,1.33c-5.31.55-10.62,1.1-15.92,1.65.02.53.05,1.06.07,1.6,6.97.11,13.97-.12,20.91.42,8.77.69,17.5,1.95,26.24,3.09,4.74.62,4.78,4.39,4.9,7.97.12,3.49-.05,6.8-4.51,7.66-1.11.21-2.84.48-3.14,1.2-2.49,6.01-7.12,3.85-11.47,3.41-6.35-.65-12.73-1.03-19.09-1.53-.05.54-.1,1.09-.15,1.63,6.51.96,13.02,1.94,19.53,2.86,3.64.51,4.32,2.33,2.98,5.61-1.78,4.31-4.66,6.42-9.45,6.78-4.42.33-8.73,1.88-13.15,2.44-4.9.62-9.87.73-15.48,1.1,1.1.73,1.74,1.31,2.5,1.62,3.87,1.59,3.84,3.32.28,5.29-3.95,2.18-2.21,3.62.63,4.99,4.35,2.09,8.73,4.13,12.97,6.44,1.86,1.01,3.82,2.35,4.97,4.05,1.49,2.21,2.21,4.94,3.27,7.45-2.84,1.06-5.76,3.16-8.52,2.96-4.54-.33-9.13-1.76-13.42-3.42-5.15-1.99-10.03-3.36-15.83-3.29-5.56.07-11.14-2.89-16.76-4.36-5.2-1.36-10.47-2.49-15.7-3.72-.16.39-.32.79-.48,1.18,2.29,1.76,4.58,3.53,6.87,5.29-.15.35-.3.69-.45,1.04-1.34-.02-2.67-.04-4.07-.06.03.38-.02.81.09.86,2.12.9,4.21,2.35,6.4,2.52,8.94.69,14.69,7.47,22.03,11.15.93.47,1.82,2.23,1.69,3.26-.11.93-1.58,2.33-2.55,2.43-4.59.44-9.39,1.4-13.8.55-16.69-3.19-33.23-7.16-49.88-10.57-18.6-3.81-37.25-7.34-55.88-10.96-15.2-2.95-30.38-6.05-45.64-8.7-10.83-1.88-21.73-3.45-32.67-4.54-9.69-.97-19.48-.8-29.18-1.69-4.9-.45-10.14-1.26-14.42-3.46-6.77-3.48-13.48-1.9-20.03-1-6.78.93-13.04.22-19.11-2.39-4.36-1.87-.7-4.16,1.08-7.21-4.89.05-8.88.14-12.87.12-2.32-.01-4.79.25-6.91-.47-1.38-.47-2.24-2.48-3.33-3.8,1.28-.79,2.52-2.16,3.85-2.27,9.46-.75,18.94-1.23,28.41-1.81.78-.05,1.55-.25,2.33-.39-.11-.54-.1-1.02-.22-1.06-7.38-2.27-15.1-3.78-22.05-6.96-5.73-2.62-10.64-7.11-15.68-11.06-.72-.56-.44-2.82-.13-4.17.36-1.54,1.28-2.96,1.99-4.48,5.56,1.92,6.89,1.08,8.12-5.46,1.32.34,2.63.68,3.94,1.02.24-.55.48-1.11.72-1.66-4.18-1.73-8.34-3.53-12.57-5.15-1.38-.53-2.92-.64-4.4-.87-7.3-1.12-12.14-5.45-15.46-12.3,1.41-1.3,3.31-2.68,4.73-4.45,2.19-2.72,2.36-5.19-1.77-6.33-1.28-.35-2.55-.77-3.8-1.23-2.27-.85-4.38-.97-5.85-4.11-1.05-2.22-5.89-2.64-9.04-3.86-.16-.44-.33-.88-.49-1.32ZM103.69,192.03c3.95-.39,6.91-.69,9.86-.98.01-.69.03-1.39.04-2.08-2.64-.89-5.27-1.79-8.04-2.73-.61,1.9-1,3.11-1.86,5.79ZM95.52,196.86c-3.87-3.81-6.43-4.24-9.64-1.42l9.64,1.42Z"/>
    <path class="cls-2" d="M25.06,167.73c8.99,1.34,18.07,2.24,26.44,6.8-8.96-1.32-17.92-2.64-26.88-3.96.15-.95.29-1.9.44-2.84Z"/>
    <path class="cls-2" d="M54.74,116.87c-5.01.07-10.01.2-15.01.12-.65,0-1.28-1.09-1.92-1.67.68-.56,1.42-1.66,2.02-1.59,5.03.59,10.04,1.39,15.05,2.13-.05.34-.09.68-.14,1.01Z"/>
    <path class="cls-2" d="M103.69,192.03c.86-2.68,1.25-3.89,1.86-5.79,2.77.94,5.4,1.83,8.04,2.73-.01.69-.03,1.39-.04,2.08-2.95.3-5.91.59-9.86.98Z"/>
    <path class="cls-2" d="M95.52,196.86l-9.64-1.42c3.21-2.82,5.77-2.39,9.64,1.42Z"/>
  </g>
  <text class="cls-1" transform="translate(91.2 235.07)"><tspan class="cls-3"><tspan x="0" y="0">COOR</tspan><tspan class="cls-5" x="224.15" y="0">D</tspan><tspan x="275.97" y="0">.</tspan></tspan><tspan class="cls-4"><tspan x="18.5" y="38.4">CU</tspan><tspan class="cls-6" x="89.67" y="38.4">L</tspan><tspan x="112" y="38.4">TURAL</tspan></tspan></text>
</svg>